<svg width="202" height="150" viewBox="0 0 202 150" fill="none" xmlns="http://www.w3.org/2000/svg">
<path d="M201.655 131.818H0.345062V131.918H201.655V131.818Z" fill="#EBEBEB"/>
<path d="M181.484 138.296H172.755V138.396H181.484V138.296Z" fill="#EBEBEB"/>
<path d="M139.116 136.21H125.382V136.311H139.116V136.21Z" fill="#EBEBEB"/>
<path d="M177.948 134.56H160.019V134.66H177.948V134.56Z" fill="#EBEBEB"/>
<path d="M70.0066 136.589H65.5215V136.689H70.0066V136.589Z" fill="#EBEBEB"/>
<path d="M61.9341 136.589H46.4776V136.689H61.9341V136.589Z" fill="#EBEBEB"/>
<path d="M38.1953 134.89H27.0428V134.99H38.1953V134.89Z" fill="#EBEBEB"/>
<path d="M95.7654 113.861H18.0236C17.4146 113.86 16.8309 113.617 16.4006 113.186C15.9703 112.755 15.7287 112.171 15.7287 111.562V2.27883C15.734 1.6733 15.978 1.09431 16.4077 0.667631C16.8374 0.240951 17.418 0.0010373 18.0236 0H95.7654C96.3752 0 96.9599 0.242211 97.3911 0.673349C97.8222 1.10449 98.0644 1.68924 98.0644 2.29896V111.562C98.0644 112.172 97.8222 112.756 97.3911 113.188C96.9599 113.619 96.3752 113.861 95.7654 113.861ZM18.0236 0.0805243C17.4413 0.0815908 16.8832 0.313667 16.4718 0.725813C16.0604 1.13796 15.8293 1.6965 15.8293 2.27883V111.562C15.8293 112.144 16.0604 112.703 16.4718 113.115C16.8832 113.527 17.4413 113.759 18.0236 113.76H95.7654C96.3481 113.759 96.9067 113.527 97.3187 113.115C97.7307 112.703 97.9627 112.145 97.9638 111.562V2.27883C97.9627 1.69613 97.7307 1.1376 97.3187 0.725568C96.9067 0.313536 96.3481 0.0815885 95.7654 0.0805243H18.0236Z" fill="#EBEBEB"/>
<path d="M182.857 113.861H105.111C104.501 113.86 103.917 113.617 103.486 113.186C103.055 112.755 102.813 112.171 102.812 111.562V2.27883C102.818 1.67293 103.063 1.09395 103.493 0.66738C103.924 0.24081 104.505 0.00102599 105.111 0H182.857C183.461 0.00209543 184.041 0.242477 184.47 0.669044C184.899 1.09561 185.142 1.67399 185.148 2.27883V111.562C185.148 112.17 184.906 112.754 184.477 113.185C184.048 113.616 183.465 113.859 182.857 113.861ZM105.111 0.0805243C104.528 0.0815885 103.97 0.313536 103.557 0.725568C103.145 1.1376 102.914 1.69613 102.912 2.27883V111.562C102.914 112.145 103.145 112.703 103.557 113.115C103.97 113.527 104.528 113.759 105.111 113.76H182.857C183.439 113.759 183.998 113.527 184.41 113.115C184.822 112.703 185.054 112.145 185.055 111.562V2.27883C185.054 1.69613 184.822 1.1376 184.41 0.725568C183.998 0.313536 183.439 0.0815885 182.857 0.0805243H105.111Z" fill="#EBEBEB"/>
<path d="M87.3397 58.7341L87.5209 53.4437L84.2757 52.3808C84.1362 50.5879 83.8453 48.8101 83.4061 47.0662L86.16 45.0531L84.2919 40.0848L80.8857 40.3586C80.0781 38.7578 79.1352 37.229 78.0674 35.7888L79.8308 32.8457L76.2072 28.9765L73.1634 30.5347C71.7947 29.3647 70.3323 28.309 68.791 27.3781L69.2822 23.9961L64.4508 21.8059L62.2363 24.3987C60.528 23.8523 58.7773 23.4483 57.0023 23.1909L56.1971 19.8773L50.8905 19.6961L49.8437 22.9453C48.0526 23.0861 46.2763 23.3756 44.5332 23.8109L42.4879 21.0731L37.5195 22.9292L37.7933 26.3353C36.1934 27.1552 34.6648 28.1074 33.2236 29.1819L30.2603 27.3781L26.375 31.0017L27.9331 34.0616C26.7629 35.4235 25.7122 36.8837 24.7927 38.426L21.4147 37.9187L19.2084 42.7501L21.8174 44.9605C21.267 46.6678 20.8629 48.4188 20.6095 50.1946L17.2557 51.0361L17.0745 56.3265L20.3357 57.3894C20.4706 59.1812 20.7602 60.958 21.2013 62.6999L18.4474 64.713L20.3196 69.6854L23.7258 69.4116C24.5313 71.0135 25.4743 72.5425 26.5441 73.9814L24.7766 76.9245L28.4002 80.7937L31.444 79.2355C32.8091 80.4053 34.2689 81.4597 35.8084 82.3881L35.3011 85.766L40.1325 87.9603L42.359 85.3674C44.0673 85.9188 45.8178 86.3295 47.5931 86.5954L48.3983 89.909L53.7048 90.0902L54.7516 86.841C56.5439 86.6986 58.3214 86.409 60.0662 85.9754L62.0793 88.7132L67.0476 86.8571L66.79 83.451C68.3869 82.6259 69.9151 81.674 71.3597 80.6044L74.2868 82.3679L78.172 78.7443L76.6139 75.6844C77.7845 74.3229 78.8352 72.8626 79.7543 71.32L83.1323 71.8273L85.3387 66.9959L82.7297 64.7815C83.2893 63.0755 83.7002 61.3243 83.9577 59.5474L87.3397 58.7341ZM51.5911 75.8737C47.4392 75.7334 43.4223 74.3649 40.0483 71.9414C36.6743 69.5178 34.0949 66.148 32.6364 62.2582C31.1779 58.3685 30.9057 54.1336 31.8544 50.0891C32.8031 46.0447 34.93 42.3725 37.966 39.537C41.0021 36.7015 44.8109 34.8302 48.9106 34.1597C53.0103 33.4892 57.2168 34.0497 60.998 35.7702C64.7791 37.4908 67.9651 40.2941 70.1528 43.8256C72.3405 47.3571 73.4316 51.4581 73.2883 55.6098C73.0972 61.1738 70.7041 66.4342 66.6354 70.2342C62.5666 74.0342 57.1552 76.0627 51.5911 75.8737Z" fill="#EBEBEB"/>
<path d="M177.9 41.2363L179.233 39.9922L178.705 38.9414C179.107 38.4705 179.47 37.9668 179.788 37.4356L180.956 37.6087L181.709 35.9419L180.815 35.1809C181.007 34.5916 181.149 33.9868 181.238 33.3732L182.385 33.0873L182.441 31.2594L181.322 30.8971C181.273 30.278 181.173 29.664 181.024 29.0611L181.97 28.3565L181.326 26.6454L180.155 26.738C179.872 26.1861 179.545 25.6583 179.176 25.1597L179.784 24.1532L178.532 22.8165L177.485 23.352C177.014 22.9505 176.51 22.5883 175.979 22.2689L176.149 21.1013L174.486 20.3404L173.721 21.2382C173.13 21.0543 172.526 20.9197 171.913 20.8356L171.627 19.6922L169.799 19.6237L169.433 20.751C168.816 20.7982 168.205 20.8978 167.605 21.049L166.904 20.1028L165.189 20.743L165.286 21.9186C164.732 22.1984 164.204 22.5258 163.708 22.897L162.693 22.289L161.356 23.5331L161.876 24.5598C161.47 25.0293 161.107 25.5332 160.789 26.0656L159.625 25.8925L158.868 27.5593L159.766 28.3243C159.58 28.9128 159.445 29.5163 159.363 30.1281L158.212 30.4139L158.155 32.2418L159.279 32.6042C159.325 33.2234 159.423 33.8375 159.573 34.4401L158.622 35.1407L159.267 36.8518L160.442 36.7632C160.725 37.3151 161.052 37.8429 161.421 38.3415L160.813 39.348L162.065 40.6847L163.112 40.1493C163.582 40.552 164.086 40.9143 164.617 41.2323L164.444 42.3959L166.111 43.1568L166.876 42.263C167.467 42.445 168.072 42.5796 168.684 42.6656L168.97 43.8091L170.798 43.8775L171.164 42.7502C171.781 42.7033 172.392 42.6036 172.992 42.4522L173.693 43.3984L175.408 42.7582L175.315 41.5826C175.867 41.3024 176.394 40.9751 176.889 40.6042L177.9 41.2363ZM168.39 33.5342C168.038 33.1575 167.806 32.6849 167.724 32.1763C167.641 31.6677 167.71 31.146 167.924 30.677C168.138 30.2081 168.485 29.813 168.924 29.5418C169.362 29.2706 169.871 29.1355 170.386 29.1536C170.901 29.1716 171.399 29.342 171.817 29.6431C172.235 29.9443 172.554 30.3627 172.735 30.8454C172.915 31.3282 172.948 31.8536 172.83 32.3551C172.711 32.8566 172.447 33.3118 172.07 33.6631C171.82 33.899 171.525 34.083 171.203 34.2043C170.881 34.3257 170.539 34.382 170.195 34.37C169.851 34.358 169.513 34.278 169.201 34.1345C168.888 33.9911 168.607 33.787 168.374 33.5342H168.39Z" fill="#EBEBEB"/>
<path d="M129.183 95.5578L125.02 92.6791C124.612 91.18 124.051 89.727 123.345 88.3429L124.412 84.1556L118.373 77.6895L114.121 78.4666C112.787 77.6675 111.375 77.0077 109.906 76.4978L107.321 72.1455L98.4632 71.8435L95.5885 76.0066C94.0912 76.4144 92.6396 76.9743 91.2563 77.6774L87.069 76.6105L80.603 82.6498L81.38 86.8934C80.5816 88.2299 79.9232 89.6453 79.4152 91.1169L75.0629 93.7017L74.761 102.559L78.9281 105.434C79.3293 106.941 79.8894 108.401 80.5989 109.79L79.5199 113.941L85.5592 120.407L89.7827 119.634C91.1266 120.434 92.5484 121.096 94.0263 121.607L96.6071 125.952L105.465 126.258L108.335 122.094C109.846 121.686 111.311 121.125 112.708 120.42L116.871 121.482L123.341 115.443L122.564 111.2C123.365 109.863 124.023 108.446 124.529 106.972L128.881 104.387L129.183 95.5578ZM101.624 109.001C99.6574 108.934 97.7551 108.285 96.1574 107.137C94.5597 105.989 93.3383 104.393 92.6478 102.55C91.9572 100.708 91.8284 98.702 92.2777 96.7865C92.727 94.8709 93.7342 93.1316 95.172 91.7885C96.6097 90.4453 98.4134 89.5586 100.355 89.2405C102.297 88.9224 104.289 89.1871 106.08 90.0013C107.871 90.8154 109.381 92.1424 110.418 93.8144C111.455 95.4864 111.973 97.4284 111.907 99.3948C111.814 102.032 110.679 104.525 108.75 106.326C106.822 108.127 104.257 109.089 101.62 109.001H101.624Z" fill="#EBEBEB"/>
<path d="M138.665 70.4584H138.637L131.664 70.2209C131.523 70.2183 131.384 70.1801 131.262 70.1097C131.139 70.0393 131.037 69.939 130.963 69.8183L129.083 66.6577C128.07 66.287 127.089 65.8318 126.152 65.2969L123.144 65.8162C123.004 65.8419 122.86 65.8317 122.725 65.7867C122.59 65.7416 122.468 65.6632 122.371 65.5586L117.608 60.4614C117.508 60.3558 117.437 60.2262 117.402 60.0852C117.367 59.9441 117.369 59.7964 117.407 59.6562L118.168 56.6727C117.696 55.706 117.311 54.6996 117.016 53.6652L113.985 51.5715C113.867 51.4908 113.772 51.3817 113.708 51.2543C113.644 51.1269 113.613 50.9853 113.618 50.8428L113.856 43.8694C113.861 43.7286 113.9 43.5912 113.97 43.469C114.04 43.3469 114.139 43.2438 114.259 43.1689L117.427 41.2886C117.793 40.2776 118.247 39.3008 118.784 38.3696L118.228 35.3379C118.202 35.1972 118.212 35.0522 118.257 34.9163C118.302 34.7805 118.381 34.6582 118.486 34.5609L123.583 29.8019C123.689 29.7016 123.818 29.63 123.959 29.594C124.1 29.5581 124.248 29.559 124.388 29.5966L127.384 30.3615C128.348 29.8898 129.352 29.5032 130.383 29.206L132.477 26.1743C132.555 26.0539 132.663 25.9564 132.792 25.892C132.92 25.8276 133.063 25.7986 133.206 25.8079L140.175 26.0495C140.317 26.0525 140.456 26.0909 140.579 26.1612C140.702 26.2315 140.805 26.3315 140.88 26.4521L142.76 29.6167C143.766 29.9861 144.739 30.4414 145.667 30.9776L148.711 30.4179C148.851 30.3919 148.995 30.4019 149.13 30.4469C149.266 30.492 149.387 30.5707 149.484 30.6756L154.247 35.7728C154.346 35.8788 154.417 36.0083 154.452 36.1492C154.487 36.2902 154.486 36.4377 154.448 36.578L153.683 39.5695C154.155 40.5343 154.543 41.5378 154.843 42.569L157.87 44.6626C157.988 44.7433 158.083 44.8524 158.147 44.9799C158.211 45.1073 158.242 45.2488 158.237 45.3913L157.999 52.3607C157.994 52.502 157.955 52.64 157.885 52.7628C157.815 52.8856 157.716 52.9894 157.597 53.0653L154.428 54.9455C154.06 55.9543 153.606 56.9295 153.071 57.8605L153.627 60.8962C153.653 61.0364 153.643 61.1808 153.598 61.316C153.553 61.4512 153.474 61.5728 153.369 61.6693L148.24 66.4322C148.134 66.5322 148.004 66.6032 147.863 66.6385C147.722 66.6738 147.575 66.6721 147.434 66.6336L144.455 65.8726C143.484 66.3421 142.475 66.7287 141.439 67.0281L139.366 70.0558C139.291 70.1753 139.188 70.2746 139.066 70.3448C138.944 70.415 138.806 70.4541 138.665 70.4584ZM132.187 68.5379L138.226 68.7433L140.24 65.8484C140.351 65.6795 140.522 65.5587 140.719 65.5102C141.852 65.2004 142.951 64.7782 144 64.25C144.183 64.1619 144.391 64.1406 144.588 64.1896L147.406 64.9103L151.835 60.7835L151.328 57.8726C151.289 57.6691 151.326 57.4584 151.432 57.2807C152.03 56.2837 152.523 55.2272 152.902 54.1282C152.966 53.929 153.101 53.76 153.28 53.6531L156.312 51.8574L156.517 45.8181L153.619 43.805C153.466 43.7007 153.351 43.5495 153.293 43.3742C153.293 43.3541 153.293 43.3299 153.293 43.3058C152.982 42.1929 152.561 41.1139 152.036 40.0848C151.943 39.9006 151.92 39.6888 151.972 39.4889L152.697 36.6384L148.57 32.2096L145.675 32.741C145.473 32.7777 145.264 32.7405 145.087 32.6363C144.088 32.0372 143.031 31.542 141.931 31.1587C141.867 31.1385 141.807 31.1115 141.749 31.0782C141.633 31.0058 141.537 30.9063 141.468 30.7883L139.652 27.7485L133.612 27.5392L131.599 30.4421C131.479 30.6122 131.302 30.7337 131.1 30.7843C129.979 31.0907 128.892 31.5102 127.855 32.0364C127.672 32.1297 127.462 32.1526 127.263 32.1009L124.413 31.3761L119.984 35.503L120.515 38.3898C120.547 38.5719 120.52 38.7593 120.439 38.9253L120.398 38.9937C119.8 39.9945 119.307 41.0551 118.929 42.1583C118.862 42.3475 118.731 42.5071 118.559 42.6092L115.527 44.4089L115.321 50.4482L118.224 52.4613C118.39 52.5746 118.51 52.743 118.563 52.9364C118.864 54.067 119.284 55.1628 119.815 56.2057C119.843 56.2651 119.866 56.3271 119.883 56.3909C119.913 56.5234 119.913 56.661 119.883 56.7935L119.158 59.6119L123.285 64.0407L126.16 63.5132C126.361 63.4765 126.568 63.5137 126.744 63.6179C127.75 64.216 128.815 64.711 129.92 65.0955C130.12 65.1548 130.289 65.289 130.391 65.47L132.187 68.5379ZM135.919 60.9002C135.771 60.9002 135.622 60.9002 135.473 60.9002C132.126 60.8413 128.937 59.4628 126.602 57.0648C124.266 54.6667 122.972 51.4432 123.002 48.0959C123.031 44.7485 124.382 41.5483 126.759 39.1918C129.137 36.8352 132.349 35.513 135.696 35.513C139.043 35.513 142.255 36.8352 144.633 39.1918C147.01 41.5483 148.361 44.7485 148.39 48.0959C148.42 51.4432 147.126 54.6667 144.79 57.0648C142.455 59.4628 139.266 60.8413 135.919 60.9002ZM135.919 37.1094C132.995 37.1599 130.208 38.3637 128.167 40.4587C126.125 42.5537 124.994 45.3704 125.019 48.2956C125.044 51.2208 126.224 54.0175 128.301 56.0771C130.379 58.1366 133.185 59.2921 136.111 59.2921C139.036 59.2921 141.843 58.1366 143.92 56.0771C145.998 54.0175 147.177 51.2208 147.202 48.2956C147.228 45.3704 146.096 42.5537 144.055 40.4587C142.013 38.3637 139.227 37.1599 136.302 37.1094H135.919Z" fill="#EBEBEB"/>
<path d="M154.726 20.2598L151.835 19.4868L151.062 16.596L152.193 15.4687L153.385 17.9367L155.857 19.1325L154.726 20.2598Z" fill="#E0E0E0"/>
<path d="M154.903 18.3272C155.028 18.2022 155.127 18.0537 155.195 17.8904C155.262 17.727 155.297 17.5519 155.297 17.375C155.297 17.1982 155.262 17.0231 155.195 16.8597C155.127 16.6963 155.028 16.5479 154.903 16.4228C154.778 16.2978 154.629 16.1986 154.466 16.1309C154.302 16.0633 154.127 16.0284 153.95 16.0284C153.774 16.0284 153.599 16.0633 153.435 16.1309C153.272 16.1986 153.123 16.2978 152.998 16.4228L154.436 14.2648L156.36 15.2391L156.783 17.2522L154.903 18.3272Z" fill="#E0E0E0"/>
<path d="M151.964 15.7022L154.081 13.5844L156.964 14.3534L157.741 17.2402L155.624 19.358L152.737 18.5809L151.964 15.7022ZM155.809 17.4334C155.997 17.2448 156.126 17.0044 156.177 16.7428C156.229 16.4812 156.203 16.2101 156.101 15.9637C155.998 15.7173 155.826 15.5068 155.604 15.3586C155.382 15.2105 155.121 15.1314 154.855 15.1314C154.588 15.1314 154.327 15.2105 154.105 15.3586C153.884 15.5068 153.711 15.7173 153.609 15.9637C153.506 16.2101 153.48 16.4812 153.532 16.7428C153.584 17.0044 153.712 17.2448 153.9 17.4334C154.155 17.6837 154.499 17.8231 154.856 17.8216C155.213 17.8201 155.556 17.6777 155.809 17.4254V17.4334Z" fill="#F0F0F0"/>
<path d="M36.6696 97.3172L38.2197 96.8985L38.6344 95.3484L38.0304 94.7445L37.3903 96.0691L36.0616 96.7093L36.6696 97.3172Z" fill="#E0E0E0"/>
<path d="M36.5805 96.2784C36.4594 96.1401 36.3954 95.9608 36.4015 95.777C36.4076 95.5932 36.4833 95.4186 36.6133 95.2886C36.7434 95.1586 36.918 95.0828 37.1018 95.0767C37.2856 95.0706 37.4648 95.1346 37.6032 95.2558L36.8342 94.1003L35.7753 94.6156L35.5498 95.7027L36.5805 96.2784Z" fill="#E0E0E0"/>
<path d="M38.1509 94.8652L37.0155 93.7299L35.4654 94.1325L35.0628 95.6826L36.178 96.83L37.7281 96.4274L38.1509 94.8652ZM36.0895 95.7953C36.0148 95.7299 35.9544 95.65 35.9119 95.5603C35.8694 95.4706 35.8458 95.3732 35.8425 95.274C35.8393 95.1749 35.8564 95.0761 35.8928 94.9838C35.9292 94.8916 35.9843 94.8078 36.0544 94.7376C36.1246 94.6674 36.2084 94.6124 36.3006 94.576C36.3929 94.5396 36.4917 94.5224 36.5909 94.5257C36.69 94.529 36.7874 94.5526 36.8771 94.5951C36.9668 94.6376 37.0468 94.698 37.1121 94.7727C37.2333 94.911 37.2973 95.0902 37.2912 95.274C37.2851 95.4578 37.2093 95.6325 37.0793 95.7625C36.9493 95.8925 36.7747 95.9683 36.5909 95.9744C36.4071 95.9805 36.2278 95.9164 36.0895 95.7953Z" fill="#F0F0F0"/>
<path d="M31.089 12.3443L32.3773 13.6327C32.5385 13.7911 32.7554 13.8798 32.9813 13.8798C33.2072 13.8798 33.4241 13.7911 33.5852 13.6327C33.7426 13.4711 33.8307 13.2544 33.8307 13.0288C33.8307 12.8032 33.7426 12.5865 33.5852 12.4248L32.3009 11.1405C32.1392 10.9831 31.9225 10.895 31.6969 10.895C31.4713 10.895 31.2546 10.9831 31.093 11.1405C30.9353 11.3009 30.8466 11.5166 30.8459 11.7416C30.8451 11.9665 30.9324 12.1828 31.089 12.3443Z" fill="#F0F0F0"/>
<path d="M30.1834 9.14347C30.5196 9.04998 30.8758 9.0567 31.2082 9.16281C31.5407 9.26892 31.8349 9.4698 32.0547 9.74078C32.2746 10.0118 32.4105 10.341 32.4459 10.6882C32.4812 11.0354 32.4144 11.3853 32.2536 11.695C32.0929 12.0047 31.8452 12.2608 31.5409 12.4317C31.2367 12.6026 30.8892 12.6809 30.5411 12.6571C30.1929 12.6333 29.8593 12.5083 29.5812 12.2975C29.3031 12.0867 29.0926 11.7993 28.9756 11.4706C28.9012 11.2385 28.8736 10.994 28.8941 10.7512C28.9147 10.5084 28.9831 10.272 29.0953 10.0557C29.2076 9.83945 29.3615 9.64749 29.5483 9.49093C29.735 9.33436 29.9509 9.21628 30.1834 9.14347Z" fill="#E0E0E0"/>
<path d="M28.7825 11.2551L28.969 11.7742L32.796 10.3994L32.6096 9.8803L28.7825 11.2551Z" fill="#F0F0F0"/>
<path d="M101 150C144.113 150 179.064 147.959 179.064 145.442C179.064 142.925 144.113 140.885 101 140.885C57.8861 140.885 22.9357 142.925 22.9357 145.442C22.9357 147.959 57.8861 150 101 150Z" fill="#F5F5F5"/>
<path d="M35.26 26.432C34.8574 24.6565 35.0345 23.1668 35.7995 21.9508C36.5645 20.7349 37.8126 19.9377 39.5882 19.5351C41.3637 19.1325 42.8977 19.2936 44.0975 20.0424C45.2973 20.7913 46.1106 22.0555 46.5132 23.7868C46.7975 24.8554 46.8209 25.9765 46.5817 27.0561C46.3476 27.9526 45.853 28.7596 45.1604 29.3752C44.3378 30.0677 43.3504 30.5364 42.2938 30.736C41.2579 31.011 40.1733 31.0482 39.1211 30.8447C38.2065 30.6224 37.3792 30.1317 36.7457 29.4355C35.9888 28.5866 35.4754 27.5488 35.26 26.432ZM38.6178 25.6831C38.8675 26.7783 39.25 27.5191 39.7653 27.9056C40.0313 28.083 40.3305 28.2047 40.6448 28.2635C40.9591 28.3223 41.282 28.317 41.5941 28.2478C41.9063 28.1786 42.2013 28.047 42.4612 27.8608C42.7212 27.6747 42.9409 27.438 43.107 27.1648C43.3969 26.6051 43.401 25.7153 43.1272 24.5035C42.8937 23.4808 42.5165 22.7802 41.9958 22.4018C41.7337 22.2136 41.4326 22.0866 41.1149 22.0302C40.7972 21.9738 40.4708 21.9893 40.1599 22.0757C39.8487 22.1339 39.5547 22.262 39.3002 22.4503C39.0456 22.6386 38.8371 22.8822 38.6903 23.1627C38.3924 23.7546 38.3642 24.5598 38.6178 25.6831Z" fill="#7395A7"/>
<path d="M48.0916 25.1034C47.9486 24.5547 47.923 23.982 48.0167 23.4228C48.1104 22.8635 48.3211 22.3304 48.6351 21.8583C48.9871 21.3567 49.4347 20.9295 49.9522 20.6013C50.4697 20.2731 51.0469 20.0504 51.6507 19.9458C53.2263 19.5888 54.5201 19.7754 55.532 20.5055C56.3836 21.1656 56.9625 22.116 57.1586 23.1755C57.3546 24.2351 57.154 25.3297 56.5949 26.2508C55.9668 27.2091 54.9442 27.8479 53.5269 28.1673C52.4351 28.4726 51.2702 28.3783 50.2416 27.9016C49.6915 27.6328 49.2112 27.2402 48.8382 26.7548C48.4652 26.2693 48.2096 25.7041 48.0916 25.1034ZM51.1152 24.4068C51.1967 24.9695 51.4714 25.4862 51.8923 25.8683C52.0591 25.9946 52.2515 26.083 52.4559 26.1275C52.6604 26.172 52.872 26.1714 53.0762 26.1258C53.2804 26.0802 53.4723 25.9907 53.6384 25.8635C53.8045 25.7363 53.941 25.5745 54.0383 25.3892C54.2491 24.8484 54.269 24.2519 54.0946 23.6982C54.0099 23.1488 53.7383 22.6454 53.3256 22.273C53.1655 22.1431 52.9775 22.052 52.7764 22.0066C52.5753 21.9612 52.3665 21.9628 52.1661 22.0112C51.9572 22.0545 51.7609 22.1448 51.592 22.2753C51.4232 22.4057 51.2863 22.5729 51.1917 22.7641C50.9749 23.2859 50.9478 23.8672 51.1152 24.4068Z" fill="#7395A7"/>
<path d="M60.1661 29.6208L57.698 18.75L60.5164 18.1058L60.7821 19.2694C60.9809 18.8054 61.2697 18.3853 61.6316 18.0334C62.0288 17.6962 62.5032 17.4624 63.0126 17.3529C63.4833 17.2249 63.9787 17.2175 64.453 17.3315C64.9273 17.4455 65.3652 17.6772 65.7263 18.0052C66.522 18.749 67.0618 19.7258 67.2683 20.7953C67.5662 22.1038 67.4777 23.1748 67.0106 24.0163C66.7885 24.4186 66.4815 24.7678 66.1109 25.0396C65.7404 25.3115 65.3151 25.4994 64.8647 25.5905C64.4307 25.6934 63.9808 25.7112 63.54 25.6429C63.1173 25.5688 62.7144 25.4085 62.3563 25.1718L63.2099 28.9282L60.1661 29.6208ZM61.6195 22.0273C61.6935 22.5302 61.9448 22.99 62.3282 23.3238C62.4819 23.4415 62.6603 23.5229 62.8499 23.5619C63.0395 23.601 63.2356 23.5966 63.4233 23.5492C63.5976 23.5143 63.7613 23.4389 63.9012 23.3291C64.041 23.2193 64.1532 23.0782 64.2285 22.9171C64.3997 22.4132 64.3997 21.8669 64.2285 21.363C64.1549 20.8576 63.9122 20.3921 63.54 20.0424C63.402 19.9278 63.2394 19.8463 63.0649 19.8045C62.8904 19.7626 62.7086 19.7613 62.5335 19.8009C62.3485 19.8408 62.1749 19.922 62.0257 20.0384C61.8765 20.1549 61.7556 20.3035 61.6719 20.4732C61.4748 20.9695 61.4563 21.5189 61.6195 22.0273Z" fill="#7395A7"/>
<path d="M68.5605 22.2649L71.4915 21.3026C71.6474 21.586 71.8902 21.8118 72.184 21.9468C72.5003 22.0384 72.835 22.0457 73.1549 21.968C73.4748 21.8903 73.7689 21.7303 74.0079 21.5039C74.0747 21.4329 74.1232 21.3466 74.1492 21.2526C74.1751 21.1586 74.1778 21.0597 74.1569 20.9644C74.1327 20.8554 74.0764 20.7561 73.9953 20.6794C73.9143 20.6026 73.8121 20.5518 73.7019 20.5336C73.247 20.4837 72.788 20.4837 72.333 20.5336C71.5694 20.5986 70.8017 20.5986 70.0381 20.5336C69.5911 20.4687 69.172 20.2773 68.8302 19.982C68.4656 19.6665 68.2138 19.2407 68.1128 18.7692C68.0118 18.2978 68.0672 17.8062 68.2706 17.369C68.5054 16.9012 68.8703 16.5111 69.3214 16.2457C69.9637 15.8809 70.6614 15.6238 71.3869 15.4848C72.0793 15.2968 72.7954 15.21 73.5127 15.2271C73.9632 15.2561 74.3998 15.3943 74.785 15.6297C75.1954 15.9066 75.5436 16.2658 75.8076 16.6846L72.9893 17.6146C72.8839 17.4048 72.7088 17.2383 72.4941 17.1435C72.2004 17.0385 71.8819 17.0245 71.5801 17.1033C71.3135 17.1405 71.0661 17.2634 70.8755 17.4536C70.815 17.5184 70.7712 17.597 70.7481 17.6827C70.7249 17.7683 70.7231 17.8583 70.7427 17.9448C70.7645 18.04 70.8146 18.1263 70.8865 18.1924C70.9584 18.2586 71.0486 18.3014 71.1453 18.3152C71.5954 18.3674 72.0505 18.3579 72.4981 18.287C73.2745 18.1745 74.0622 18.1636 74.8413 18.2548C75.3315 18.324 75.7906 18.5354 76.1619 18.8627C76.4977 19.1672 76.7311 19.568 76.8303 20.0102C76.9334 20.4844 76.8956 20.9784 76.7216 21.4315C76.5087 21.9678 76.138 22.4269 75.6587 22.748C74.9525 23.2097 74.1613 23.5258 73.3315 23.6781C71.8955 24.0055 70.8218 24.0337 70.1106 23.7626C69.4175 23.4859 68.8609 22.948 68.5605 22.2649Z" fill="#7395A7"/>
<path d="M78.3926 12.3081H81.6981V14.8446L81.0902 19.9458H79.0449L78.3926 14.8526V12.3081ZM78.5537 20.7148H81.6377V23.4445H78.5537V20.7148Z" fill="#7395A7"/>
<path d="M52.1544 46.9374H52.0819C50.2701 46.2328 49.1871 45.5484 48.6234 44.723C48.1822 44.8066 47.7257 44.7444 47.3229 44.5458C46.8511 44.3149 46.4597 43.9474 46.1996 43.491C46.0629 43.5959 45.9019 43.6645 45.7316 43.6906C45.5612 43.7166 45.3871 43.6992 45.2253 43.6399C44.7291 43.4543 44.3057 43.1141 44.0174 42.6696C43.8371 42.8039 43.613 42.8657 43.3893 42.8428C42.1815 42.7461 40.571 40.3626 40.4542 37.8261C40.4531 37.7726 40.4724 37.7206 40.5084 37.6809C40.5443 37.6412 40.5941 37.6168 40.6475 37.6127C40.6739 37.6116 40.7003 37.6158 40.7252 37.6249C40.75 37.6341 40.7728 37.648 40.7923 37.6659C40.8117 37.6839 40.8274 37.7055 40.8385 37.7295C40.8496 37.7536 40.8558 37.7795 40.8569 37.806C40.9696 40.2217 42.5116 42.3677 43.4256 42.4401C43.4921 42.4476 43.5594 42.4418 43.6237 42.4232C43.6879 42.4045 43.7479 42.3733 43.8 42.3314C43.4851 41.7574 43.2874 41.1265 43.2183 40.4755C43.1492 39.8244 43.21 39.1661 43.3974 38.5387C43.7436 37.3309 44.0496 36.8558 44.42 36.9283C45.1126 37.1014 45.02 39.7466 44.6536 41.4738C44.598 41.7854 44.4832 42.0833 44.3154 42.3516C44.5527 42.7496 44.911 43.0613 45.338 43.2413C45.4518 43.2847 45.5757 43.2944 45.6949 43.2695C45.8141 43.2445 45.9236 43.1858 46.0104 43.1004C45.6964 42.3234 45.6078 41.2605 46.0587 39.9077C46.6224 38.124 46.8639 38.0757 46.9888 38.0435C47.0357 38.0337 47.0844 38.0367 47.1298 38.0523C47.1752 38.0679 47.2155 38.0955 47.2464 38.1321C47.6209 38.5549 47.174 41.3249 46.7069 42.6938C46.6522 42.8585 46.5764 43.0155 46.4815 43.1608C46.6975 43.5963 47.0494 43.9496 47.484 44.1674C47.769 44.306 48.086 44.3658 48.402 44.3405C48.3657 44.264 48.3335 44.1875 48.3013 44.107C47.9832 43.2413 48.1403 42.2469 48.7804 41.0551C49.2032 40.27 49.5494 39.8996 49.8715 39.8996C49.957 39.9007 50.0404 39.9264 50.1118 39.9735C50.1831 40.0206 50.2395 40.0872 50.2741 40.1653C50.6244 40.8135 50.3708 42.9515 49.6783 44.0144C49.5161 44.258 49.2906 44.4529 49.026 44.578C49.5655 45.2867 50.5922 45.9107 52.247 46.5469C52.2718 46.5558 52.2946 46.5696 52.3139 46.5875C52.3333 46.6054 52.3489 46.627 52.3598 46.651C52.3707 46.6751 52.3766 46.701 52.3773 46.7274C52.378 46.7537 52.3734 46.78 52.3637 46.8045C52.3481 46.8465 52.3192 46.8821 52.2814 46.9061C52.2436 46.9301 52.199 46.9411 52.1544 46.9374ZM49.8675 40.3062C49.8675 40.3062 49.638 40.3063 49.1307 41.2524C48.5469 42.3314 48.3979 43.2212 48.6757 43.9701C48.7094 44.0628 48.7498 44.153 48.7965 44.2398C49.0146 44.1497 49.2 43.9952 49.328 43.797C49.8917 42.9354 50.1614 41.1638 49.952 40.4713C49.9239 40.3304 49.8675 40.3062 49.8675 40.3062ZM46.9767 38.6112C46.7587 39.0696 46.5783 39.5449 46.4372 40.0325C46.1284 40.8774 46.0752 41.7946 46.2842 42.6696L46.3204 42.5649C46.7432 41.2888 46.9686 39.9555 46.9888 38.6112H46.9767ZM44.3274 37.343C44.259 37.4034 44.0617 37.657 43.7839 38.6394C43.4553 39.7419 43.559 40.9282 44.0738 41.957C44.1564 41.777 44.2172 41.5877 44.255 41.3933C44.6858 39.4165 44.565 37.6288 44.3395 37.343H44.3274Z" fill="#7395A7"/>
<path d="M67.4623 68.0427C66.8186 68.0489 66.1849 67.8836 65.6263 67.5636C65.5803 67.536 65.547 67.4914 65.5335 67.4395C65.5199 67.3876 65.5273 67.3324 65.5539 67.2858C65.5671 67.2631 65.5848 67.2433 65.6058 67.2275C65.6269 67.2118 65.6508 67.2003 65.6763 67.194C65.7019 67.1876 65.7284 67.1864 65.7544 67.1904C65.7803 67.1944 65.8053 67.2036 65.8276 67.2174C67.265 68.0589 69.1211 67.471 69.5036 66.855C69.5312 66.8164 69.5508 66.7726 69.5612 66.7263C69.5715 66.6799 69.5725 66.632 69.564 66.5853C68.8289 66.6275 68.1012 66.4204 67.4985 65.9974C66.4718 65.3573 66.3913 65.164 66.3994 65.011C66.4013 64.9671 66.4151 64.9244 66.4392 64.8876C66.4632 64.8508 66.4968 64.8211 66.5363 64.8017C66.9389 64.6003 68.7547 65.4338 69.5116 65.933C69.6024 65.9933 69.6861 66.0635 69.7612 66.1424C70.0587 66.0749 70.3267 65.9141 70.5262 65.6834C70.6385 65.5515 70.7197 65.396 70.7638 65.2284H70.6832C70.039 65.2929 69.3949 65.015 68.7064 64.3789C68.2313 63.9441 68.0501 63.6421 68.1105 63.4046C68.1288 63.3378 68.1658 63.2777 68.2172 63.2313C68.2685 63.1849 68.3321 63.1542 68.4004 63.1429C68.956 63.0019 70.333 63.5898 70.8926 64.2058C71.0174 64.3397 71.1061 64.5032 71.1503 64.6809C71.6777 64.4353 72.2333 63.8756 72.8896 62.9617C72.9048 62.9399 72.9243 62.9214 72.9467 62.9072C72.9692 62.8929 72.9942 62.8833 73.0204 62.8788C73.0466 62.8743 73.0735 62.875 73.0994 62.881C73.1253 62.8869 73.1498 62.8979 73.1714 62.9134C73.2145 62.9449 73.2437 62.9919 73.2527 63.0445C73.2617 63.0971 73.2499 63.1512 73.2197 63.1952C72.4588 64.2581 71.8226 64.8621 71.1865 65.1077C71.1536 65.4052 71.0315 65.6859 70.8362 65.9129C70.6042 66.1825 70.2995 66.3796 69.9585 66.4806C69.9777 66.5767 69.9776 66.6756 69.9582 66.7717C69.9389 66.8678 69.9007 66.959 69.8458 67.0402C69.5076 67.616 68.5332 68.0427 67.4623 68.0427ZM67.1039 65.2486C67.2408 65.3492 67.4341 65.4821 67.7119 65.6512C68.1448 65.9432 68.6423 66.1256 69.1613 66.1826C68.5133 65.794 67.823 65.4807 67.1039 65.2486ZM68.5091 63.5374C68.6248 63.7552 68.7853 63.9459 68.9802 64.0971C69.576 64.6487 70.1196 64.9023 70.643 64.8379H70.7718C70.7432 64.7128 70.6821 64.5976 70.5947 64.5037C70.031 63.8676 68.7909 63.473 68.5091 63.5374Z" fill="#7395A7"/>
<path d="M72.7928 67.4911L66.52 68.6305L60.8229 37.5403L48.7202 39.7386L28.9918 74.7665L31.1096 86.3257L56.4142 81.7318L58.1455 91.1853L70.2482 88.9789L68.517 79.5254L74.7898 78.386L72.7928 67.4911ZM41.0462 73.2768L51.5143 54.9294L54.4333 70.849L41.0462 73.2768Z" fill="#00425F" fill-opacity="0.6"/>
<path d="M123.318 35.4305C123.127 33.4761 122.694 31.5529 122.029 29.7053C121.345 27.9354 120.395 26.2804 119.211 24.7974C117.81 23.072 116.069 21.6524 114.098 20.6262C111.95 19.4479 109.103 18.6279 105.554 18.1662C98.1862 17.2053 92.4448 18.5125 88.3301 22.0877C84.2153 25.663 81.5043 32.5075 80.1971 42.6213C79.6752 46.4012 79.5403 50.2244 79.7945 54.0316C80.0629 57.521 80.7044 60.3299 81.719 62.4584C83.0101 65.3288 85.0469 67.8008 87.6174 69.617C90.1593 71.4019 93.6487 72.5816 98.0855 73.156C105.972 74.184 111.819 72.6688 115.628 68.6104C119.436 64.552 121.96 57.6941 123.197 48.0366C123.747 43.8549 123.788 39.622 123.318 35.4305Z" fill="#00425F" fill-opacity="0.6"/>
<path d="M101.713 69.0211C100.742 68.9889 99.6996 68.9003 98.6488 68.7634C94.9608 68.2843 92.1103 67.3502 90.1696 65.9894C88.2343 64.6228 86.7041 62.7588 85.7408 60.5943L85.7207 60.55C84.9476 58.9395 84.4403 56.6244 84.2189 53.7054C83.9843 50.1992 84.1085 46.6781 84.5893 43.1971C86.0267 32.0364 88.994 27.3781 91.2285 25.4375C93.8375 23.1748 97.3604 22.1521 101.991 22.3132C102.941 22.3454 103.947 22.4299 104.982 22.5628C107.953 22.9654 110.309 23.6096 111.976 24.5195C113.416 25.2613 114.691 26.2871 115.724 27.5351C116.628 28.6623 117.354 29.9209 117.878 31.2674C118.413 32.7688 118.759 34.3309 118.909 35.9177C119.338 39.7626 119.299 43.6455 118.792 47.4809C117.677 56.1534 115.519 62.249 112.382 65.5988C110.055 68.0789 106.564 69.2224 101.709 69.0372L101.713 69.0211Z" fill="#7395A7"/>
<path d="M109.592 35.5473L109.645 34.0214L108.707 33.7154C108.667 33.1993 108.583 32.6875 108.457 32.1854L109.262 31.5976L108.723 30.1643L107.74 30.2448C107.509 29.7841 107.24 29.3437 106.935 28.9282L107.442 28.0787L106.396 26.9634L105.518 27.4144C105.125 27.0767 104.705 26.7724 104.262 26.5045L104.403 25.5301L103.01 24.898L102.373 25.6469C101.881 25.4872 101.376 25.3687 100.864 25.2926L100.626 24.3384L99.0961 24.286L98.7941 25.2201C98.2782 25.2614 97.7665 25.3449 97.2642 25.4697L96.6723 24.6645L95.239 25.2L95.3195 26.1824C94.859 26.4136 94.4186 26.6829 94.003 26.9876L93.1575 26.4763L92.0382 27.5191L92.4891 28.4008C92.1505 28.7933 91.8473 29.215 91.5832 29.661L90.6089 29.512L89.9727 30.9051L90.7256 31.5412C90.5622 32.0342 90.4436 32.5408 90.3713 33.0551L89.4131 33.2967L89.3607 34.8186L90.2989 35.1246C90.3382 35.6421 90.4217 36.1553 90.5485 36.6585L89.7432 37.2423L90.2828 38.6757L91.2651 38.5951C91.4938 39.0571 91.7633 39.4977 92.0704 39.9117L91.5591 40.7612L92.6059 41.8765L93.4836 41.4296C93.8764 41.7659 94.2966 42.0689 94.7397 42.3355L94.5948 43.3098L95.9879 43.9419L96.628 43.1971C97.122 43.3558 97.6284 43.473 98.1419 43.5474L98.3794 44.5056L99.9054 44.5579L100.207 43.6198C100.725 43.5805 101.238 43.497 101.741 43.3702L102.325 44.1754L103.758 43.64L103.682 42.6616C104.141 42.4274 104.581 42.1582 104.998 41.8564L105.844 42.3637L106.963 41.3209L106.516 40.4391C106.854 40.048 107.155 39.6276 107.418 39.183L108.393 39.3279L109.029 37.9348L108.28 37.2987C108.44 36.8065 108.557 36.3013 108.63 35.7889L109.592 35.5473ZM99.2853 40.4874C98.0928 40.4439 96.94 40.048 95.9722 39.3498C95.0045 38.6516 94.2653 37.6824 93.848 36.5644C93.4306 35.4465 93.3538 34.23 93.6272 33.0684C93.9006 31.9069 94.512 30.8524 95.3842 30.038C96.2564 29.2236 97.3503 28.6858 98.5279 28.4926C99.7054 28.2994 100.914 28.4593 102.001 28.9522C103.087 29.4451 104.004 30.249 104.634 31.2622C105.264 32.2755 105.58 33.4527 105.542 34.6454C105.517 35.4404 105.334 36.2225 105.006 36.9469C104.677 37.6712 104.209 38.3236 103.627 38.8664C103.046 39.4092 102.363 39.8319 101.618 40.11C100.873 40.3882 100.08 40.5165 99.2853 40.4874Z" fill="#00425F" fill-opacity="0.6"/>
<path opacity="0.3" d="M115.945 63.5616L116.058 62.5308L115.438 62.2812C115.437 61.9305 115.408 61.5804 115.35 61.2344L115.909 60.8761L115.623 59.8816H114.955C114.823 59.5582 114.662 59.2469 114.476 58.9516L114.854 58.404L114.21 57.5988L113.594 57.8564C113.345 57.6095 113.075 57.3833 112.789 57.18L112.938 56.5278L112.032 56.0285L111.557 56.5077C111.233 56.3745 110.899 56.2681 110.558 56.1896L110.446 55.5333L109.419 55.4166L109.165 56.0366C108.816 56.0382 108.467 56.0706 108.123 56.1332L107.764 55.5615L106.77 55.8554V56.5238C106.446 56.6574 106.135 56.819 105.84 57.0069L105.292 56.6043L104.487 57.2485L104.745 57.8645C104.499 58.1143 104.274 58.3836 104.072 58.6697L103.42 58.5248L102.925 59.4307L103.4 59.9017C103.265 60.226 103.158 60.5615 103.082 60.9043L102.421 61.013L102.313 62.0397L102.929 62.2973C102.929 62.6456 102.96 62.9932 103.021 63.3361L102.454 63.6944L102.744 64.6889H103.416C103.55 65.0108 103.712 65.3206 103.899 65.6149L103.496 66.1625L104.141 66.9677L104.765 66.706C105.012 66.9538 105.282 67.1788 105.57 67.3784L105.429 68.0427L106.335 68.5379L106.806 68.0669C107.13 68.1969 107.464 68.3006 107.804 68.3769L107.921 69.0372L108.948 69.1499L109.198 68.5339C109.554 68.5334 109.909 68.5038 110.26 68.4453L110.619 69.013L111.609 68.7231V68.0548C111.933 67.9188 112.245 67.7572 112.543 67.5716L113.083 67.9743L113.888 67.326L113.626 66.71C113.874 66.4603 114.102 66.191 114.307 65.9048L114.955 66.0497L115.454 65.1439L114.979 64.6768C115.109 64.3527 115.212 64.0188 115.289 63.6783L115.945 63.5616ZM110.764 63.1589C110.593 63.4707 110.334 63.7248 110.019 63.8893C109.705 64.0538 109.348 64.1212 108.995 64.083C108.642 64.0448 108.308 63.9027 108.035 63.6747C107.763 63.4466 107.564 63.1429 107.465 62.802C107.365 62.461 107.368 62.0981 107.475 61.7592C107.581 61.4203 107.786 61.1207 108.063 60.8981C108.34 60.6756 108.677 60.5402 109.031 60.509C109.384 60.4778 109.74 60.5523 110.051 60.7231C110.468 60.9526 110.776 61.3376 110.91 61.794C111.043 62.2504 110.991 62.7411 110.764 63.1589Z" fill="#00425F" fill-opacity="0.6"/>
<path d="M121.651 46.1603L120.443 45.3309C120.324 44.8998 120.162 44.4816 119.96 44.0828L120.266 42.875L118.526 41.0108L117.319 41.2363C116.935 41.0082 116.531 40.818 116.111 40.6686L115.366 39.4124L112.817 39.3279L111.988 40.5357C111.556 40.6528 111.138 40.8147 110.74 41.0189L109.532 40.7089L107.668 42.4522L107.893 43.6601C107.662 44.0415 107.472 44.4464 107.326 44.8679L106.073 45.6128L105.985 48.1614L107.193 48.9908C107.31 49.4251 107.472 49.8461 107.676 50.2469L107.37 51.4548L109.109 53.3189L110.317 53.0975C110.7 53.3252 111.105 53.5154 111.525 53.6652L112.266 54.9173L114.818 55.0059L115.644 53.798C116.079 53.6799 116.501 53.518 116.904 53.3149L118.112 53.6209L119.976 51.8816L119.754 50.6737C119.983 50.2909 120.173 49.8863 120.322 49.4658L121.574 48.721L121.651 46.1603ZM113.707 50.0335C113.14 50.0141 112.592 49.827 112.132 49.496C111.672 49.165 111.32 48.7049 111.121 48.174C110.922 47.643 110.885 47.0649 111.015 46.513C111.144 45.961 111.435 45.4599 111.849 45.073C112.264 44.6861 112.784 44.4308 113.343 44.3394C113.903 44.248 114.477 44.3246 114.993 44.5595C115.509 44.7944 115.944 45.1771 116.243 45.6591C116.541 46.1411 116.69 46.7009 116.67 47.2675C116.643 48.0269 116.316 48.7445 115.76 49.2629C115.205 49.7814 114.467 50.0585 113.707 50.0335Z" fill="white"/>
<path d="M130.392 25.816L130.601 25.3127C130.744 25.2325 130.879 25.1395 131.004 25.0349H131.471L132.019 24.2297L131.841 23.7989C131.909 23.6554 131.963 23.5057 132.003 23.352L132.405 22.9815L132.236 22.0354L131.729 21.826C131.649 21.6832 131.556 21.5484 131.451 21.4234V20.9564L130.666 20.4088L130.231 20.59C130.072 20.534 129.907 20.4962 129.74 20.4773L129.369 20.0746L128.427 20.2437L128.214 20.751C128.064 20.8285 127.923 20.9202 127.791 21.0248H127.328L126.781 21.8301L126.958 22.2609C126.904 22.4204 126.866 22.5849 126.845 22.7521L126.442 23.1265L126.611 24.0686L127.119 24.278C127.196 24.4215 127.287 24.5564 127.393 24.6806V25.1436L128.198 25.6912L128.629 25.514C128.79 25.5664 128.956 25.6028 129.124 25.6227L129.494 26.0253L130.392 25.816ZM128.379 23.207C128.341 22.9969 128.366 22.7803 128.451 22.5845C128.536 22.3887 128.677 22.2225 128.857 22.107C129.037 21.9916 129.246 21.9319 129.46 21.9357C129.673 21.9395 129.881 22.0066 130.056 22.1283C130.232 22.2501 130.367 22.4212 130.445 22.6199C130.523 22.8186 130.54 23.036 130.495 23.2446C130.449 23.4532 130.343 23.6436 130.189 23.7917C130.035 23.9398 129.841 24.039 129.631 24.0767C129.35 24.126 129.061 24.0623 128.826 23.8995C128.592 23.7366 128.431 23.4877 128.379 23.207Z" fill="#00425F" fill-opacity="0.6"/>
<path d="M119.364 23.1466L119.054 22.8849C119.718 22.0609 120.539 21.3767 121.47 20.8718L121.659 21.2261C120.774 21.7078 119.994 22.3606 119.364 23.1466Z" fill="#00425F" fill-opacity="0.6"/>
<path d="M122.577 20.8557L122.42 20.4853C123.906 19.8392 125.532 19.5788 127.146 19.7284L127.106 20.131C125.559 19.9852 124.001 20.2345 122.577 20.8557Z" fill="#00425F" fill-opacity="0.6"/>
<path d="M121.816 23.6418L121.486 23.4164C122.456 22.1065 123.867 21.1925 125.46 20.8436L125.536 21.2462C124.048 21.5712 122.727 22.4217 121.816 23.6418Z" fill="#00425F" fill-opacity="0.6"/>
<path d="M95.0979 62.406C95.043 62.4044 94.991 62.3813 94.953 62.3416L94.1115 61.472C93.6825 61.4331 93.258 61.3549 92.8433 61.2384L91.5267 61.8182C91.4977 61.8341 91.4651 61.8424 91.4321 61.8424C91.399 61.8424 91.3665 61.8341 91.3375 61.8182L89.1311 60.3567C89.1027 60.338 89.0795 60.3122 89.064 60.2818C89.0485 60.2515 89.0411 60.2176 89.0425 60.1836V58.7503C88.7733 58.4134 88.536 58.0522 88.3339 57.6712L87.2026 57.2364C87.1709 57.2241 87.1428 57.204 87.121 57.178C87.0992 57.1519 87.0843 57.1208 87.0777 57.0874L86.5543 54.4946C86.5474 54.4614 86.549 54.4271 86.5588 54.3947C86.5687 54.3624 86.5865 54.333 86.6107 54.3094L87.4804 53.4679C87.522 53.0393 87.6001 52.615 87.7139 52.1996L87.1341 50.8831C87.1183 50.8541 87.1099 50.8215 87.1099 50.7885C87.1099 50.7554 87.1183 50.7229 87.1341 50.6938L88.5956 48.4875C88.6138 48.4584 88.6394 48.4349 88.6699 48.4193C88.7004 48.4037 88.7346 48.3966 88.7688 48.3989L90.2021 48.419C90.5379 48.1484 90.8993 47.9111 91.2811 47.7104L91.72 46.5791C91.7315 46.5477 91.7509 46.5197 91.7763 46.4979C91.8016 46.4761 91.8321 46.4611 91.8649 46.4543L94.4578 45.9308C94.4909 45.9235 94.5253 45.9249 94.5578 45.9347C94.5902 45.9446 94.6196 45.9627 94.643 45.9872L95.4845 46.8569C95.9147 46.8961 96.3406 46.9743 96.7567 47.0904L98.0693 46.5106C98.099 46.4948 98.1322 46.4865 98.1659 46.4865C98.1996 46.4865 98.2328 46.4948 98.2625 46.5106L100.465 47.9721C100.493 47.9917 100.516 48.0176 100.532 48.0476C100.548 48.0777 100.557 48.1112 100.557 48.1453L100.533 49.5786C100.804 49.9153 101.042 50.2766 101.246 50.6576L102.373 51.0965C102.405 51.108 102.433 51.1274 102.454 51.1528C102.476 51.1781 102.491 51.2086 102.498 51.2414L103.026 53.8343C103.032 53.8674 103.03 53.9015 103.02 53.9338C103.01 53.966 102.993 53.9954 102.969 54.0195L102.095 54.865C102.055 55.2925 101.977 55.7155 101.862 56.1292L102.442 57.4458C102.458 57.4755 102.466 57.5087 102.466 57.5424C102.466 57.5761 102.458 57.6093 102.442 57.639L101 59.8252C100.981 59.8526 100.956 59.875 100.927 59.8904C100.897 59.9058 100.864 59.9139 100.831 59.9138L99.3939 59.8937C99.0568 60.1607 98.6971 60.3978 98.3189 60.6023L97.88 61.7337C97.8681 61.7656 97.8481 61.7938 97.822 61.8157C97.7959 61.8376 97.7646 61.8523 97.7311 61.8585L95.1382 62.406H95.0979ZM92.8312 60.7956C92.8498 60.7919 92.8689 60.7919 92.8876 60.7956C93.3223 60.9222 93.7688 61.0045 94.2202 61.0412C94.2686 61.0469 94.3138 61.068 94.3491 61.1016L95.1543 61.9471L97.5298 61.4679L97.9565 60.3648C97.9763 60.3202 98.0103 60.2834 98.0532 60.2601C98.4553 60.0521 98.8345 59.8025 99.1845 59.5152C99.2215 59.484 99.2691 59.4682 99.3174 59.4709L100.714 59.4911L102.051 57.478L101.488 56.1976C101.472 56.1534 101.472 56.105 101.488 56.0608C101.612 55.6255 101.694 55.1792 101.733 54.7281C101.737 54.6793 101.759 54.6336 101.793 54.5992L102.639 53.794L102.16 51.4186L101.061 50.9918C101.014 50.9746 100.975 50.94 100.952 50.8951C100.743 50.4935 100.494 50.1144 100.207 49.7638C100.178 49.727 100.163 49.6816 100.163 49.6349V48.2338L98.1498 46.8971L96.8735 47.4608C96.8279 47.4771 96.7781 47.4771 96.7326 47.4608C96.2963 47.3348 95.8485 47.2525 95.3959 47.2152C95.3475 47.2095 95.3023 47.1883 95.267 47.1548L94.4618 46.3093L92.0863 46.7925L91.6636 47.9117C91.6467 47.9579 91.6139 47.9965 91.571 48.0204C91.1672 48.2279 90.7867 48.4776 90.4356 48.7653C90.4182 48.781 90.3979 48.793 90.3757 48.8006C90.3536 48.8082 90.3301 48.8113 90.3068 48.8096L88.9097 48.7894L87.5689 50.8025L88.1326 52.0829C88.1455 52.1099 88.1522 52.1395 88.1522 52.1694C88.1522 52.1994 88.1455 52.229 88.1326 52.256C88.0133 52.681 87.9351 53.1165 87.8991 53.5565C87.8953 53.6053 87.8738 53.6511 87.8387 53.6853L86.9932 54.4905L87.4763 56.866L88.5715 57.2928C88.6204 57.3131 88.6603 57.3502 88.6842 57.3975C88.8918 57.7964 89.1401 58.1728 89.425 58.5208C89.4549 58.5569 89.4707 58.6027 89.4693 58.6496V60.0507L91.4824 61.3874L92.7627 60.8238C92.7837 60.8104 92.8069 60.8008 92.8312 60.7956ZM94.808 59.4911C93.8389 59.4902 92.8882 59.2268 92.0568 58.7287C91.2255 58.2307 90.5446 57.5167 90.0867 56.6627C89.6287 55.8086 89.4106 54.8464 89.4558 53.8784C89.5009 52.9104 89.8075 51.9726 90.343 51.1649C90.8552 50.39 91.5597 49.7613 92.3876 49.3403C93.2156 48.9192 94.1387 48.7203 95.0666 48.7629C95.9945 48.8055 96.8954 49.0882 97.6813 49.5834C98.4672 50.0785 99.1111 50.7692 99.5501 51.5878C99.9891 52.4064 100.208 53.3249 100.186 54.2535C100.163 55.1821 99.9003 56.089 99.4224 56.8854C98.9445 57.6819 98.2681 58.3408 97.4593 58.7975C96.6504 59.2542 95.7369 59.4932 94.808 59.4911ZM90.6812 51.3863C90.1393 52.204 89.8519 53.164 89.8556 54.145C89.8592 55.1259 90.1536 56.0838 90.7015 56.8974C91.2495 57.7111 92.0264 58.344 92.934 58.7161C93.8416 59.0883 94.8392 59.183 95.8006 58.9882C96.7621 58.7934 97.6441 58.318 98.3354 57.6219C99.0266 56.9259 99.4959 56.0405 99.684 55.0778C99.8721 54.115 99.7705 53.1181 99.3921 52.2131C99.0137 51.3081 98.3754 50.5356 97.5579 49.9933C97.0158 49.6304 96.4072 49.3786 95.7673 49.2522C95.1273 49.1258 94.4686 49.1274 93.8293 49.2569C93.19 49.3864 92.5826 49.6413 92.0423 50.0068C91.5019 50.3723 91.0394 50.8411 90.6812 51.3863Z" fill="white"/>
<path d="M171.793 71.1227L165.472 70.2692L169.651 38.9414L157.46 37.2987L127.888 64.5238L126.333 76.1716L151.815 79.61L150.543 89.14L162.734 90.7827L164.007 81.2567L170.328 82.1102L171.793 71.1227ZM139.817 66.8067L155.423 52.5821L153.281 68.6225L139.817 66.8067Z" fill="#00425F" fill-opacity="0.6"/>
<path d="M159.03 90.4847H158.978C158.926 90.475 158.879 90.4449 158.849 90.4012C158.819 90.3574 158.807 90.3035 158.817 90.2512L168.238 38.7401C168.249 38.6883 168.279 38.6427 168.323 38.6127C168.366 38.5827 168.419 38.5707 168.472 38.579C168.524 38.5888 168.57 38.6188 168.6 38.6626C168.63 38.7063 168.642 38.7602 168.633 38.8125L159.231 90.3197C159.222 90.3662 159.197 90.4081 159.16 90.4382C159.124 90.4683 159.078 90.4847 159.03 90.4847Z" fill="#7395A7"/>
<path d="M167.364 39.6057C167.361 39.6932 167.323 39.776 167.259 39.8356C167.195 39.8953 167.109 39.927 167.022 39.9238C166.934 39.9206 166.852 39.8827 166.792 39.8185C166.732 39.7543 166.701 39.6691 166.704 39.5815C166.707 39.494 166.745 39.4113 166.809 39.3516C166.873 39.292 166.958 39.2603 167.046 39.2635C167.134 39.2667 167.216 39.3045 167.276 39.3687C167.336 39.4329 167.367 39.5181 167.364 39.6057Z" fill="#7395A7"/>
<path d="M166.023 46.571C166.021 46.6362 165.999 46.6993 165.961 46.7522C165.923 46.8051 165.87 46.8455 165.808 46.8682C165.747 46.8909 165.681 46.895 165.617 46.8799C165.554 46.8649 165.496 46.8313 165.452 46.7835C165.407 46.7357 165.378 46.6757 165.367 46.6113C165.357 46.5469 165.366 46.4808 165.393 46.4214C165.42 46.362 165.464 46.3121 165.52 46.2778C165.576 46.2435 165.64 46.2264 165.705 46.2288C165.749 46.2303 165.791 46.2404 165.831 46.2585C165.87 46.2765 165.906 46.3022 165.935 46.334C165.965 46.3658 165.988 46.403 166.003 46.4437C166.018 46.4844 166.025 46.5276 166.023 46.571Z" fill="#7395A7"/>
<path d="M164.683 53.5484C164.681 53.5918 164.671 53.6344 164.653 53.6739C164.635 53.7133 164.609 53.7489 164.577 53.7784C164.546 53.8079 164.508 53.8309 164.468 53.846C164.427 53.8612 164.384 53.8681 164.34 53.8665C164.297 53.8654 164.255 53.8558 164.215 53.8382C164.176 53.8206 164.14 53.7953 164.111 53.7639C164.081 53.7324 164.058 53.6954 164.043 53.6549C164.028 53.6145 164.021 53.5714 164.022 53.5283C164.023 53.4846 164.033 53.4415 164.051 53.4016C164.069 53.3617 164.094 53.3257 164.126 53.2957C164.158 53.2657 164.195 53.2424 164.236 53.227C164.277 53.2117 164.321 53.2046 164.364 53.2062C164.452 53.2104 164.534 53.2485 164.593 53.3125C164.653 53.3764 164.685 53.4611 164.683 53.5484Z" fill="#7395A7"/>
<path d="M162.042 60.7956C162.033 60.8763 161.994 60.9509 161.934 61.0051C161.873 61.0593 161.795 61.0893 161.714 61.0893C161.632 61.0893 161.554 61.0593 161.493 61.0051C161.433 60.9509 161.394 60.8763 161.385 60.7956C161.38 60.7494 161.385 60.7027 161.399 60.6585C161.413 60.6143 161.437 60.5736 161.468 60.539C161.499 60.5044 161.536 60.4767 161.579 60.4578C161.621 60.4388 161.667 60.429 161.714 60.429C161.76 60.429 161.806 60.4388 161.848 60.4578C161.891 60.4767 161.929 60.5044 161.96 60.539C161.991 60.5736 162.014 60.6143 162.028 60.6585C162.042 60.7027 162.047 60.7494 162.042 60.7956Z" fill="#7395A7"/>
<path d="M161.998 67.467C161.997 67.5105 161.987 67.5534 161.969 67.5931C161.951 67.6328 161.926 67.6686 161.894 67.6982C161.862 67.7279 161.824 67.7508 161.783 67.7657C161.743 67.7806 161.699 67.7872 161.656 67.785C161.59 67.7826 161.527 67.7609 161.474 67.7226C161.421 67.6844 161.381 67.6313 161.358 67.5701C161.336 67.5089 161.332 67.4424 161.347 67.3789C161.362 67.3154 161.395 67.2577 161.443 67.2133C161.491 67.1689 161.551 67.1396 161.615 67.1292C161.68 67.1188 161.746 67.1277 161.805 67.1549C161.865 67.182 161.914 67.2262 161.949 67.2817C161.983 67.3373 162 67.4017 161.998 67.467Z" fill="#7395A7"/>
<path d="M160.657 74.4323C160.655 74.4977 160.634 74.5612 160.596 74.6146C160.558 74.6681 160.506 74.7091 160.444 74.7324C160.383 74.7558 160.317 74.7604 160.253 74.7458C160.189 74.7311 160.131 74.6979 160.086 74.6502C160.041 74.6025 160.012 74.5426 160.001 74.478C159.99 74.4134 159.999 74.3471 160.026 74.2875C160.053 74.2279 160.097 74.1777 160.153 74.1433C160.208 74.1088 160.273 74.0917 160.339 74.0941C160.425 74.0972 160.508 74.1345 160.567 74.1978C160.627 74.2611 160.659 74.3454 160.657 74.4323Z" fill="#7395A7"/>
<path d="M159.316 81.3976C159.313 81.4855 159.275 81.5687 159.211 81.629C159.147 81.6893 159.061 81.7219 158.973 81.7197C158.93 81.7181 158.887 81.7081 158.848 81.69C158.809 81.672 158.773 81.6463 158.743 81.6145C158.714 81.5827 158.691 81.5454 158.676 81.5048C158.661 81.4641 158.654 81.4208 158.655 81.3775C158.657 81.3341 158.667 81.2914 158.684 81.2519C158.702 81.2124 158.728 81.1767 158.759 81.147C158.791 81.1172 158.828 81.094 158.869 81.0787C158.909 81.0633 158.952 81.0561 158.996 81.0574C159.039 81.0587 159.082 81.0686 159.121 81.0864C159.161 81.1042 159.196 81.1296 159.226 81.1612C159.256 81.1928 159.279 81.2299 159.294 81.2705C159.31 81.3111 159.317 81.3543 159.316 81.3976Z" fill="#7395A7"/>
<path d="M157.971 88.367C157.969 88.4322 157.947 88.4952 157.909 88.5481C157.871 88.601 157.818 88.6414 157.756 88.6641C157.695 88.6869 157.629 88.691 157.565 88.6759C157.502 88.6608 157.444 88.6272 157.4 88.5794C157.355 88.5316 157.326 88.4717 157.315 88.4073C157.305 88.3428 157.314 88.2767 157.341 88.2174C157.368 88.158 157.412 88.108 157.468 88.0737C157.523 88.0394 157.588 88.0224 157.653 88.0247C157.697 88.0258 157.74 88.0355 157.779 88.0534C157.819 88.0712 157.855 88.0968 157.884 88.1287C157.914 88.1606 157.937 88.1982 157.952 88.2391C157.967 88.28 157.973 88.3235 157.971 88.367Z" fill="#7395A7"/>
<path d="M161.712 60.9767C161.666 60.9768 161.622 60.9612 161.587 60.9326C161.552 60.904 161.528 60.8641 161.519 60.8197C161.513 60.7938 161.512 60.767 161.516 60.7408C161.521 60.7146 161.53 60.6895 161.545 60.6671C161.559 60.6446 161.577 60.6252 161.599 60.6099C161.621 60.5947 161.646 60.5839 161.672 60.5782L162.67 60.3648C162.696 60.3589 162.723 60.3583 162.75 60.363C162.776 60.3678 162.801 60.3778 162.824 60.3924C162.846 60.407 162.866 60.426 162.881 60.4482C162.896 60.4705 162.906 60.4955 162.912 60.5218C162.917 60.5477 162.917 60.5744 162.912 60.6004C162.907 60.6263 162.897 60.651 162.882 60.6731C162.868 60.6952 162.849 60.7141 162.827 60.7289C162.805 60.7437 162.78 60.7541 162.755 60.7593L161.756 60.9727L161.712 60.9767Z" fill="#7395A7"/>
<path d="M165.049 57.2686C164.574 58.5005 164.171 59.7587 163.841 61.0371C163.539 62.4584 163.523 65.6391 163.523 65.6391" fill="#7395A7"/>
<path d="M163.523 65.8404C163.47 65.8383 163.419 65.8159 163.381 65.7777C163.344 65.7396 163.323 65.6885 163.322 65.635C163.322 65.5062 163.346 62.4141 163.648 60.9969C163.975 59.7074 164.379 58.4383 164.856 57.1961C164.864 57.1696 164.877 57.1451 164.895 57.124C164.913 57.103 164.935 57.0858 164.96 57.0737C164.985 57.0616 165.012 57.0547 165.04 57.0536C165.067 57.0524 165.095 57.057 165.121 57.067C165.147 57.0769 165.17 57.0922 165.19 57.1117C165.21 57.1311 165.225 57.1545 165.235 57.1802C165.245 57.2059 165.25 57.2335 165.249 57.2612C165.249 57.2889 165.242 57.3161 165.23 57.3411C164.756 58.5635 164.352 59.8124 164.022 61.0814C163.728 62.4664 163.708 65.6069 163.704 65.6391C163.704 65.6892 163.686 65.7375 163.652 65.7748C163.619 65.812 163.573 65.8354 163.523 65.8404Z" fill="#7395A7"/>
<path d="M89.9076 100.591C90.4672 91.5718 89.4405 75.1731 106.395 77.3473C124.565 79.6704 119.367 100.921 119.367 100.921L89.9076 100.591Z" fill="#7395A7"/>
<path d="M101.608 95.1713C105.695 95.1713 109.008 91.8581 109.008 87.7711C109.008 83.6841 105.695 80.371 101.608 80.371C97.521 80.371 94.2078 83.6841 94.2078 87.7711C94.2078 91.8581 97.521 95.1713 101.608 95.1713Z" fill="white"/>
<path d="M102.582 80.383C99.0751 79.7872 95.3348 82.3679 94.9604 84.985L108.855 86.2653C108.364 83.2819 105.36 80.8581 102.582 80.383Z" fill="#7395A7"/>
<path d="M107.273 87.5859C107.173 89.5225 106.118 91.0404 104.918 90.976C103.718 90.9115 102.824 89.297 102.905 87.3524C102.985 85.4077 104.06 83.8979 105.26 83.9623C106.46 84.0268 107.37 85.6533 107.273 87.5859Z" fill="#7395A7"/>
<path d="M101.608 95.5739C100.064 95.5739 98.5559 95.1163 97.2727 94.2589C95.9896 93.4015 94.9895 92.1829 94.3989 90.7571C93.8083 89.3313 93.6538 87.7625 93.9549 86.2489C94.256 84.7353 94.9991 83.345 96.0903 82.2537C97.1816 81.1625 98.5719 80.4193 100.085 80.1183C101.599 79.8172 103.168 79.9717 104.594 80.5623C106.019 81.1529 107.238 82.153 108.095 83.4361C108.953 84.7193 109.411 86.2279 109.411 87.7711C109.408 89.8399 108.586 91.8233 107.123 93.2861C105.66 94.749 103.677 95.5718 101.608 95.5739ZM101.608 80.7776C100.224 80.7776 98.8705 81.1881 97.7197 81.9572C96.5689 82.7263 95.672 83.8194 95.1425 85.0982C94.613 86.3771 94.4746 87.7843 94.745 89.1418C95.0153 90.4993 95.6821 91.7461 96.6612 92.7246C97.6402 93.703 98.8874 94.3692 100.245 94.6387C101.603 94.9083 103.01 94.7691 104.288 94.2389C105.567 93.7086 106.66 92.8111 107.428 91.6598C108.196 90.5086 108.606 89.1553 108.605 87.7711C108.603 85.9163 107.865 84.1381 106.553 82.8269C105.241 81.5157 103.463 80.7787 101.608 80.7776Z" fill="#00425F" fill-opacity="0.6"/>
<path opacity="0.3" d="M117.302 100.365H117.254C117.228 100.359 117.204 100.349 117.182 100.333C117.16 100.318 117.142 100.298 117.128 100.276C117.114 100.253 117.105 100.228 117.101 100.202C117.097 100.176 117.098 100.149 117.105 100.123C117.105 100.071 118.401 94.6116 117.069 89.0917C117.056 89.0383 117.065 88.982 117.094 88.9352C117.122 88.8884 117.168 88.8549 117.222 88.8421C117.275 88.8293 117.331 88.8382 117.378 88.8669C117.425 88.8956 117.459 88.9417 117.471 88.9951C118.828 94.6318 117.52 100.164 117.508 100.216C117.496 100.261 117.469 100.3 117.431 100.327C117.394 100.354 117.348 100.368 117.302 100.365Z" fill="white"/>
<path opacity="0.3" d="M116.178 86.064C116.14 86.0635 116.102 86.0524 116.069 86.0318C116.037 86.0111 116.01 85.9819 115.993 85.9472C115.493 84.8412 114.851 83.8045 114.085 82.8632C114.051 82.8219 114.036 82.7692 114.041 82.7165C114.046 82.6637 114.072 82.6151 114.113 82.5813C114.134 82.5642 114.157 82.5513 114.183 82.5434C114.208 82.5355 114.235 82.5328 114.262 82.5355C114.288 82.5381 114.314 82.546 114.338 82.5587C114.361 82.5714 114.382 82.5887 114.399 82.6095C115.184 83.5782 115.843 84.6429 116.36 85.7781C116.371 85.8019 116.378 85.8277 116.379 85.854C116.38 85.8803 116.376 85.9066 116.367 85.9314C116.358 85.9562 116.344 85.9789 116.327 85.9982C116.309 86.0175 116.287 86.033 116.263 86.0439C116.236 86.0562 116.208 86.063 116.178 86.064Z" fill="white"/>
<path d="M52.174 142.898H52.025C51.4911 142.883 50.985 142.656 50.618 142.268C50.2511 141.88 50.0533 141.362 50.0683 140.828C50.0832 140.294 50.3096 139.788 50.6977 139.421C51.0858 139.054 51.6038 138.857 52.1377 138.872H52.174C53.3375 138.872 56.1357 137.458 61.9898 128.23C62.1452 127.985 62.3518 127.777 62.5953 127.619C62.8389 127.461 63.1136 127.358 63.4008 127.316C63.688 127.274 63.9808 127.295 64.2592 127.377C64.5375 127.459 64.7948 127.601 65.0135 127.792C69.6109 131.744 74.6248 135.183 79.9668 138.05C80.214 138.163 80.4359 138.324 80.6192 138.524C80.8024 138.725 80.9432 138.96 81.0331 139.217C81.1229 139.473 81.16 139.745 81.1421 140.016C81.1241 140.287 81.0515 140.551 80.9287 140.793C80.8058 141.036 80.6352 141.251 80.4271 141.425C80.219 141.6 79.9778 141.73 79.7179 141.809C79.458 141.888 79.1849 141.913 78.9149 141.884C78.6449 141.854 78.3837 141.771 78.147 141.638C73.1821 138.999 68.4891 135.879 64.1358 132.321C59.2279 139.709 55.5882 142.898 52.174 142.898Z" fill="#7395A7"/>
<path d="M64.6309 127.429H64.4577C64.1414 127.383 63.856 127.214 63.6644 126.958C63.4727 126.702 63.3902 126.381 63.4351 126.064C63.7209 124.051 63.3666 116.55 60.8261 110.712C60.7134 110.454 60.6944 110.165 60.7723 109.895C60.8502 109.624 61.0202 109.389 61.2529 109.231C66.7688 105.474 78.5172 105.023 79.0165 105.007C79.1751 105.002 79.3332 105.028 79.4818 105.084C79.6303 105.14 79.7664 105.224 79.8823 105.333C79.9982 105.441 80.0916 105.571 80.1572 105.716C80.2228 105.86 80.2593 106.016 80.2646 106.175C80.2699 106.333 80.2439 106.492 80.188 106.64C80.1322 106.789 80.0477 106.925 79.9393 107.041C79.8309 107.157 79.7007 107.25 79.5561 107.316C79.4116 107.381 79.2556 107.418 79.097 107.423C78.9883 107.423 68.7175 107.826 63.4431 110.724C65.6898 116.538 66.2011 123.781 65.8266 126.402C65.7833 126.688 65.6387 126.949 65.4193 127.138C65.1998 127.326 64.9201 127.43 64.6309 127.429Z" fill="#7395A7"/>
<path d="M66.6604 125.867C65.8552 123.971 62.2316 124.184 60.1098 125.811C58.9744 126.676 57.4364 129.289 57.2914 130.239C57.2431 130.465 57.2503 130.699 57.3125 130.922C57.3747 131.144 57.49 131.348 57.6484 131.516C57.8068 131.684 58.0037 131.811 58.2221 131.886C58.4404 131.961 58.6737 131.982 58.9019 131.947C60.291 131.826 62.1954 129.809 62.1954 129.809C60.9271 131.053 62.5658 131.93 65.0137 130.131C66.3504 129.128 67.5583 127.989 66.6604 125.867Z" fill="#00425F" fill-opacity="0.6"/>
<path d="M135.911 101.122C135.892 101.126 135.873 101.126 135.855 101.122C135.829 101.115 135.805 101.103 135.784 101.087C135.763 101.07 135.746 101.05 135.733 101.026C135.72 101.003 135.712 100.977 135.71 100.951C135.707 100.924 135.71 100.898 135.718 100.872C136.253 99.0042 136.837 97.8648 137.606 97.2488C137.485 96.8158 137.508 96.3554 137.67 95.9363C137.858 95.447 138.189 95.0259 138.621 94.7284C138.503 94.6017 138.42 94.4474 138.379 94.2799C138.337 94.1123 138.339 93.937 138.383 93.7702C138.529 93.2658 138.83 92.8205 139.245 92.4979C139.095 92.3308 139.013 92.1141 139.015 91.8899C139.015 90.6821 141.234 88.8622 143.75 88.516C143.803 88.5085 143.858 88.5225 143.901 88.555C143.944 88.5875 143.972 88.6357 143.979 88.6891C143.987 88.7425 143.973 88.7967 143.94 88.8397C143.908 88.8827 143.86 88.9111 143.806 88.9186C141.415 89.2447 139.41 90.976 139.418 91.8899C139.417 92.0262 139.469 92.1575 139.563 92.2563C140.104 91.889 140.714 91.6333 141.355 91.504C141.997 91.3748 142.657 91.3746 143.299 91.5034C144.535 91.741 145.038 92.0027 144.982 92.3771C144.869 93.0817 142.24 93.2307 140.477 93.0213C140.161 92.9926 139.853 92.9038 139.571 92.7596C139.191 93.0298 138.909 93.4153 138.766 93.8587C138.731 93.9761 138.731 94.1009 138.766 94.2181C138.801 94.3353 138.87 94.4399 138.963 94.519C139.712 94.1164 140.763 93.9715 142.152 94.2775C143.975 94.6801 144.044 94.9015 144.088 95.0344C144.102 95.0813 144.103 95.1312 144.091 95.1788C144.079 95.2263 144.055 95.2696 144.02 95.3041C143.637 95.7068 140.839 95.5175 139.434 95.1713C139.264 95.1326 139.1 95.0717 138.947 94.9901C138.531 95.2428 138.211 95.6267 138.037 96.0812C137.921 96.3753 137.889 96.6959 137.944 97.0072C138.016 96.9644 138.09 96.9254 138.166 96.8905C138.999 96.4878 140.006 96.5603 141.25 97.0918C142.055 97.4421 142.458 97.7561 142.498 98.0742C142.5 98.1558 142.479 98.2363 142.439 98.3072C142.398 98.3781 142.339 98.4367 142.268 98.4768C141.652 98.8794 139.502 98.823 138.383 98.2272C138.126 98.0873 137.911 97.8799 137.763 97.6273C137.107 98.2312 136.575 99.3062 136.092 100.993C136.078 101.03 136.053 101.061 136.021 101.084C135.988 101.107 135.95 101.12 135.911 101.122ZM138.093 97.3656C138.205 97.5738 138.376 97.7446 138.584 97.8567C139.494 98.3399 141.282 98.4486 141.95 98.1789C142.087 98.1225 142.107 98.0782 142.107 98.0782C142.107 98.0782 142.087 97.8527 141.101 97.43C139.973 96.9468 139.088 96.8784 138.351 97.2206C138.262 97.2634 138.176 97.3118 138.093 97.3656ZM139.438 94.7204L139.539 94.7485C140.85 95.0507 142.199 95.1525 143.541 95.0505C143.065 94.874 142.574 94.7393 142.075 94.6479C141.208 94.413 140.291 94.4382 139.438 94.7204ZM139.945 92.4576C140.131 92.5243 140.324 92.5675 140.521 92.5865C142.534 92.824 144.302 92.5462 144.547 92.2926C144.479 92.2322 144.209 92.059 143.21 91.8698C142.087 91.6457 140.92 91.8558 139.945 92.4576Z" fill="#7395A7"/>
<path d="M83.4977 142.225C83.7634 142.141 83.6749 141.883 83.3769 141.883H77.9254C67.5459 140.784 60.2947 142.258 64.8645 142.604C69.4342 142.95 64.5424 142.878 61.2047 144.142C57.8669 145.406 86.0262 145.724 88.5828 144.142C90.9341 142.684 79.8178 143.405 83.4977 142.225Z" fill="#7395A7"/>
<path d="M122.528 143.832L75.0993 142.258L73.1305 96.2704L129.139 97.5226L122.528 143.832Z" fill="#00425F" fill-opacity="0.6"/>
<path d="M89.9082 142.95C89.8575 142.95 89.8086 142.931 89.7713 142.897C89.734 142.863 89.711 142.815 89.7069 142.765L85.9062 96.5764C85.9028 96.5232 85.9203 96.4708 85.9548 96.4302C85.9894 96.3896 86.0384 96.3641 86.0914 96.359C86.1444 96.3566 86.1963 96.3744 86.2366 96.4088C86.277 96.4431 86.3028 96.4915 86.3088 96.5442L90.1297 142.733C90.1319 142.759 90.1288 142.786 90.1207 142.811C90.1126 142.836 90.0995 142.86 90.0823 142.88C90.0651 142.9 90.0441 142.917 90.0204 142.929C89.9968 142.941 89.9709 142.948 89.9445 142.95H89.9082Z" fill="#7395A7"/>
<path d="M122.528 143.832L135.275 141.891L139.289 99.129L129.139 97.5225L122.528 143.832Z" fill="#00425F" fill-opacity="0.6"/>
<path opacity="0.2" d="M122.528 143.832L135.275 141.891L139.289 99.129L129.139 97.5225L122.528 143.832Z" fill="black"/>
<path d="M79.1494 133.396L77.9818 106.07C77.953 105.395 78.063 104.721 78.305 104.09C78.5469 103.46 78.9157 102.885 79.3886 102.402C79.8614 101.92 80.4282 101.539 81.054 101.284C81.6797 101.03 82.3511 100.906 83.0266 100.921L118.481 101.726C119.179 101.742 119.866 101.905 120.497 102.206C121.127 102.507 121.686 102.937 122.138 103.47C122.589 104.003 122.923 104.625 123.117 105.296C123.31 105.967 123.359 106.671 123.26 107.363L119.331 134.878C119.161 136.083 118.552 137.183 117.621 137.966C116.69 138.75 115.502 139.163 114.286 139.125L83.9325 138.119C82.6865 138.08 81.501 137.572 80.6139 136.696C79.7268 135.82 79.2037 134.641 79.1494 133.396Z" fill="#7395A7"/>
<path d="M82.9826 109.307L88.4663 109.48L88.422 110.894L84.9876 110.785L84.9554 111.84L88.1401 111.94L88.0959 113.293L84.9111 113.189L84.8709 114.497L88.4018 114.61L88.3535 116.107L82.7692 115.93L82.9826 109.307Z" fill="white"/>
<path d="M89.4855 116.144L89.6949 109.521L93.1091 109.629C93.5986 109.627 94.0858 109.697 94.5545 109.839C94.8868 109.95 95.1709 110.172 95.3597 110.467C95.4997 110.682 95.5938 110.923 95.6364 111.176C95.6789 111.429 95.6689 111.688 95.6069 111.937C95.545 112.186 95.4324 112.42 95.2763 112.623C95.1202 112.827 94.9238 112.996 94.6994 113.12C94.4705 113.238 94.2247 113.319 93.9707 113.362C94.1579 113.422 94.3355 113.509 94.4981 113.619C94.6156 113.728 94.7209 113.85 94.8122 113.982C94.9159 114.107 95.0075 114.242 95.0859 114.384L96.016 116.337L93.705 116.261L92.6743 114.203C92.5925 114.007 92.472 113.829 92.32 113.68C92.1754 113.575 92.003 113.516 91.8247 113.511H91.6435L91.559 116.196L89.4855 116.144ZM91.6677 112.271L92.5293 112.299C92.7122 112.288 92.894 112.262 93.0728 112.222C93.2076 112.202 93.3298 112.131 93.4151 112.025C93.5022 111.918 93.5517 111.785 93.556 111.646C93.5636 111.554 93.5506 111.462 93.5179 111.375C93.4851 111.289 93.4335 111.211 93.3668 111.147C93.1421 111.002 92.8768 110.933 92.6098 110.95L91.708 110.922L91.6677 112.271Z" fill="white"/>
<path d="M96.6834 116.357L96.8927 109.734L100.303 109.843C100.792 109.84 101.28 109.91 101.748 110.052C102.081 110.162 102.366 110.384 102.554 110.68C102.758 111.003 102.854 111.382 102.827 111.763C102.829 112.085 102.743 112.4 102.579 112.677C102.415 112.953 102.18 113.18 101.897 113.333C101.668 113.451 101.422 113.532 101.169 113.575C101.355 113.635 101.531 113.722 101.692 113.833C101.812 113.939 101.919 114.059 102.01 114.191C102.113 114.317 102.205 114.452 102.284 114.594L103.214 116.542L100.903 116.47L99.8721 114.412C99.7898 114.216 99.6693 114.038 99.5178 113.889C99.374 113.78 99.1989 113.721 99.0186 113.72H98.8414L98.7528 116.409L96.6834 116.357ZM98.8616 112.484L99.7272 112.508C99.9102 112.501 100.092 112.477 100.271 112.436C100.405 112.416 100.526 112.345 100.609 112.238C100.699 112.133 100.749 111.999 100.75 111.86C100.759 111.768 100.746 111.675 100.714 111.589C100.682 111.503 100.631 111.424 100.565 111.361C100.34 111.212 100.072 111.142 99.8037 111.163L98.9058 111.135L98.8616 112.484Z" fill="white"/>
<path d="M103.544 113.281C103.513 112.819 103.585 112.356 103.754 111.924C103.923 111.493 104.186 111.105 104.523 110.787C104.861 110.47 105.264 110.231 105.704 110.088C106.145 109.945 106.612 109.901 107.071 109.959C107.535 109.944 107.997 110.022 108.43 110.189C108.863 110.355 109.258 110.607 109.592 110.93C109.889 111.273 110.114 111.673 110.253 112.105C110.391 112.538 110.44 112.994 110.397 113.446C110.4 114.104 110.246 114.753 109.946 115.338C109.674 115.818 109.269 116.207 108.778 116.458C108.201 116.734 107.561 116.856 106.922 116.812C106.285 116.817 105.655 116.68 105.078 116.409C104.587 116.143 104.186 115.737 103.927 115.242C103.622 114.636 103.49 113.957 103.544 113.281ZM105.59 113.354C105.529 113.861 105.644 114.374 105.916 114.807C106.043 114.949 106.197 115.063 106.369 115.144C106.541 115.225 106.728 115.27 106.918 115.278C107.108 115.285 107.298 115.254 107.476 115.186C107.653 115.118 107.816 115.015 107.953 114.884C108.251 114.432 108.393 113.894 108.356 113.354C108.41 112.868 108.291 112.379 108.021 111.973C107.899 111.832 107.749 111.719 107.579 111.642C107.409 111.565 107.225 111.525 107.039 111.526C106.851 111.512 106.663 111.541 106.488 111.611C106.313 111.681 106.156 111.789 106.028 111.928C105.724 112.339 105.569 112.842 105.59 113.354Z" fill="white"/>
<path d="M111.432 116.844L111.641 110.217L115.051 110.326C115.541 110.325 116.027 110.396 116.497 110.535C116.828 110.648 117.112 110.869 117.302 111.163C117.505 111.486 117.601 111.866 117.576 112.246C117.577 112.568 117.492 112.885 117.328 113.162C117.164 113.439 116.928 113.667 116.646 113.821C116.415 113.935 116.17 114.015 115.917 114.058C116.103 114.119 116.279 114.208 116.44 114.32C116.561 114.426 116.667 114.546 116.758 114.678C116.862 114.803 116.954 114.938 117.032 115.081L117.962 117.034L115.651 116.961L114.62 114.9C114.538 114.704 114.418 114.528 114.266 114.38C114.122 114.272 113.947 114.212 113.767 114.207H113.59L113.501 116.897L111.432 116.844ZM113.61 112.967L114.475 112.995C114.658 112.988 114.84 112.964 115.019 112.923C115.152 112.901 115.273 112.831 115.357 112.725C115.452 112.613 115.502 112.47 115.498 112.323C115.507 112.232 115.495 112.14 115.463 112.054C115.43 111.968 115.379 111.891 115.313 111.828C115.088 111.679 114.82 111.609 114.552 111.63L113.654 111.602L113.61 112.967Z" fill="white"/>
<path d="M102.17 134.126C102.146 134.127 102.122 134.122 102.099 134.112C102.077 134.103 102.057 134.088 102.04 134.07L100.928 132.853L99.7282 133.95C99.6949 133.98 99.6509 133.996 99.6059 133.994C99.5608 133.992 99.5184 133.972 99.4879 133.939L98.376 132.722L97.1757 133.818C97.1425 133.849 97.0985 133.865 97.0534 133.863C97.0083 133.861 96.9659 133.841 96.9354 133.808L95.8222 132.591L94.6232 133.687C94.6057 133.703 94.5852 133.715 94.5628 133.723C94.5405 133.73 94.5168 133.733 94.4933 133.731C94.4482 133.729 94.4058 133.709 94.3751 133.676L93.2632 132.46L92.0642 133.555C92.0308 133.585 91.9866 133.601 91.9413 133.599C91.896 133.597 91.8534 133.578 91.8226 133.544C91.8075 133.528 91.7957 133.509 91.7881 133.488C91.7805 133.466 91.7771 133.444 91.7782 133.422C91.7793 133.399 91.7848 133.377 91.7944 133.357C91.8041 133.337 91.8176 133.319 91.8343 133.304L93.1593 132.092C93.1928 132.062 93.237 132.046 93.2822 132.047C93.3275 132.049 93.3702 132.069 93.4009 132.103L94.5128 133.32L95.7118 132.223C95.7458 132.193 95.7899 132.178 95.8352 132.179C95.8804 132.182 95.9228 132.202 95.9534 132.235L97.0653 133.452L98.2655 132.356C98.2819 132.341 98.3012 132.329 98.3222 132.321C98.3432 132.313 98.3655 132.31 98.3879 132.311C98.4102 132.312 98.4322 132.317 98.4524 132.327C98.4727 132.336 98.4908 132.35 98.5059 132.366L99.6178 133.583L100.818 132.487C100.851 132.457 100.895 132.441 100.94 132.442C100.985 132.444 101.028 132.464 101.058 132.497L102.3 133.846C102.322 133.871 102.337 133.901 102.342 133.934C102.347 133.967 102.342 134.001 102.328 134.031C102.315 134.061 102.292 134.087 102.264 134.105C102.236 134.123 102.204 134.132 102.17 134.132V134.126Z" fill="white"/>
<path d="M50.9746 144.81L48.4542 143.606L46.2076 132.667L47.4275 131.327L50.9746 144.81Z" fill="#00425F" fill-opacity="0.6"/>
<path d="M50.9742 144.81L54.3199 142.854L51.4533 133.843L47.4271 131.327L50.9742 144.81Z" fill="#00425F" fill-opacity="0.6"/>
<path opacity="0.2" d="M50.9742 144.81L54.3199 142.854L51.4533 133.843L47.4271 131.327L50.9742 144.81Z" fill="black"/>
<path d="M105.831 146.799H105.553C105.019 146.785 104.513 146.559 104.146 146.171C103.778 145.783 103.58 145.266 103.595 144.732C103.609 144.198 103.835 143.692 104.223 143.324C104.61 142.957 105.128 142.759 105.662 142.773C108.762 142.874 115.325 140.969 119.077 137.33C119.304 137.107 119.58 136.942 119.882 136.846C126.24 134.938 128.603 138.791 128.7 138.956L125.237 141.005C125.25 141.031 125.264 141.055 125.282 141.078C125.245 141.026 124.344 139.87 121.477 140.579C116.77 144.871 109.547 146.799 105.831 146.799Z" fill="#7395A7"/>
<path d="M105.586 149.473L98.2543 149.014L97.6786 135.494L107.531 135.86L105.586 149.473Z" fill="#00425F" fill-opacity="0.6"/>
<path d="M105.586 149.473L107.301 147.765L108.364 139.339L107.531 135.86L105.586 149.473Z" fill="#00425F" fill-opacity="0.6"/>
<path opacity="0.2" d="M105.586 149.473L107.301 147.765L108.364 139.339L107.531 135.86L105.586 149.473Z" fill="black"/>
<path d="M148.07 144.355C147.807 144.355 147.551 144.269 147.341 144.11C143.154 140.929 137.497 135.28 135.327 129.833C135.295 129.754 135.272 129.672 135.259 129.587C134.2 123.29 133.189 110.04 133.145 109.48C133.133 109.322 133.152 109.162 133.202 109.011C133.252 108.86 133.331 108.72 133.435 108.6C133.644 108.356 133.942 108.206 134.262 108.182C134.583 108.158 134.899 108.262 135.143 108.472C135.386 108.681 135.537 108.979 135.561 109.299C135.561 109.432 136.595 122.811 137.626 129.056C139.792 134.354 145.678 139.794 148.811 142.185C149.013 142.338 149.161 142.551 149.235 142.793C149.31 143.035 149.306 143.294 149.225 143.534C149.144 143.774 148.99 143.982 148.784 144.129C148.578 144.277 148.331 144.356 148.078 144.355H148.07Z" fill="#7395A7"/>
<path d="M153.654 144.963C152.72 144.963 151.661 144.54 150.506 143.707C150.246 143.519 150.072 143.236 150.022 142.919C149.971 142.603 150.048 142.28 150.236 142.02C150.424 141.761 150.707 141.586 151.024 141.536C151.34 141.485 151.664 141.562 151.923 141.75C152.922 142.471 153.465 142.556 153.654 142.556C153.975 142.556 154.282 142.683 154.508 142.909C154.735 143.136 154.862 143.443 154.862 143.763C154.862 144.084 154.735 144.391 154.508 144.618C154.282 144.844 153.975 144.971 153.654 144.971V144.963Z" fill="#7395A7"/>
<path d="M150.844 143.671C152.136 139.834 157.435 140.591 159.263 141.163C160.824 141.616 162.322 142.265 163.72 143.095C164.706 143.739 164.722 144.822 163.406 145.438C161.795 146.195 157.705 145.523 157.705 145.523C159.814 146.445 157.705 147.939 153.996 146.473C152.793 145.998 150.389 145.08 150.844 143.671Z" fill="#00425F" fill-opacity="0.6"/>
<path d="M137.985 111.123C137.505 114.384 134.804 116.788 132.606 116.466C130.407 116.144 130.319 113.245 130.798 109.968C131.277 106.69 132.147 104.331 134.345 104.653C136.543 104.975 138.464 107.874 137.985 111.123Z" fill="#7395A7"/>
<path d="M84.8471 98.1184C85.0294 98.1184 85.1772 97.9706 85.1772 97.7883C85.1772 97.606 85.0294 97.4581 84.8471 97.4581C84.6648 97.4581 84.5169 97.606 84.5169 97.7883C84.5169 97.9706 84.6648 98.1184 84.8471 98.1184Z" fill="#7395A7"/>
<path d="M88.2012 100.164C88.2012 100.229 88.1819 100.293 88.1456 100.347C88.1093 100.401 88.0577 100.444 87.9974 100.469C87.9371 100.494 87.8707 100.5 87.8067 100.488C87.7426 100.475 87.6838 100.443 87.6376 100.397C87.5914 100.351 87.56 100.292 87.5473 100.228C87.5345 100.164 87.5411 100.098 87.5661 100.037C87.591 99.9771 87.6334 99.9255 87.6877 99.8892C87.7419 99.853 87.8058 99.8336 87.8711 99.8336C87.9586 99.8336 88.0426 99.8684 88.1045 99.9303C88.1664 99.9922 88.2012 100.076 88.2012 100.164Z" fill="#7395A7"/>
<path d="M88.5711 139.178C88.5711 139.243 88.5517 139.307 88.5155 139.361C88.4792 139.415 88.4276 139.458 88.3673 139.483C88.307 139.508 88.2406 139.514 88.1765 139.501C88.1125 139.489 88.0537 139.457 88.0075 139.411C87.9613 139.365 87.9299 139.306 87.9171 139.242C87.9044 139.178 87.9109 139.112 87.9359 139.051C87.9609 138.991 88.0032 138.939 88.0575 138.903C88.1118 138.867 88.1756 138.847 88.2409 138.847C88.3285 138.847 88.4125 138.882 88.4744 138.944C88.5363 139.006 88.5711 139.09 88.5711 139.178Z" fill="#7395A7"/>
<path d="M91.5951 141.557C91.5951 141.622 91.5757 141.686 91.5394 141.74C91.5032 141.795 91.4516 141.837 91.3913 141.862C91.3309 141.887 91.2646 141.894 91.2005 141.881C91.1365 141.868 91.0777 141.837 91.0315 141.791C90.9853 141.744 90.9539 141.686 90.9411 141.621C90.9284 141.557 90.9349 141.491 90.9599 141.431C90.9849 141.37 91.0272 141.319 91.0815 141.283C91.1358 141.246 91.1996 141.227 91.2649 141.227C91.3525 141.227 91.4365 141.262 91.4984 141.324C91.5603 141.386 91.5951 141.47 91.5951 141.557Z" fill="#7395A7"/>
<path d="M33.5655 145.515C32.9859 145.488 32.4198 145.331 31.9089 145.055C31.3981 144.78 30.9557 144.394 30.6143 143.924C30.5976 143.903 30.5854 143.878 30.5786 143.852C30.5717 143.825 30.5703 143.798 30.5744 143.771C30.5786 143.744 30.5882 143.718 30.6026 143.695C30.6171 143.671 30.6361 143.651 30.6585 143.636C30.681 143.62 30.7063 143.609 30.7331 143.604C30.7598 143.598 30.7874 143.598 30.8142 143.604C30.8409 143.61 30.8663 143.62 30.8887 143.636C30.9111 143.652 30.9301 143.672 30.9445 143.695C31.6974 144.782 33.3602 145.358 34.0849 145.016C34.1575 144.985 34.2222 144.938 34.2741 144.879C33.9079 144.718 33.5871 144.469 33.3399 144.154C33.0927 143.839 32.9268 143.469 32.8569 143.075C32.7643 142.564 32.6918 141.867 33.1106 141.779C33.6903 141.65 34.4473 143.047 34.721 144.106C34.7706 144.281 34.7884 144.464 34.7734 144.645C35.0056 144.714 35.2499 144.734 35.49 144.702C35.5983 144.693 35.7036 144.662 35.7992 144.611C35.8949 144.56 35.9788 144.489 36.0457 144.404C35.7807 144.204 35.5609 143.95 35.4006 143.659C35.2404 143.369 35.1432 143.047 35.1156 142.717C34.9626 141.613 35.0794 141.424 35.2002 141.328C35.2393 141.298 35.286 141.279 35.3351 141.274C35.3841 141.269 35.4336 141.278 35.478 141.299C35.9088 141.481 36.4281 143.043 36.5288 143.929C36.5409 144.021 36.5409 144.114 36.5288 144.206C36.7024 144.273 36.8864 144.308 37.0723 144.311C37.4137 144.324 37.7514 144.236 38.0427 144.057C37.9863 144.021 37.9339 143.981 37.8816 143.941C37.479 143.582 37.2938 143.011 37.3663 142.197C37.4226 141.565 37.5635 141.219 37.8172 141.11C37.899 141.077 37.9886 141.069 38.0751 141.086C38.1616 141.103 38.2412 141.145 38.3044 141.207C38.5761 141.507 38.7792 141.863 38.8995 142.249C39.0198 142.636 39.0544 143.044 39.0009 143.445C38.9659 143.612 38.896 143.77 38.7956 143.908C39.5364 144.037 40.5751 143.828 41.473 143.606C41.4994 143.6 41.5268 143.599 41.5537 143.603C41.5805 143.607 41.6063 143.617 41.6295 143.631C41.6527 143.645 41.6728 143.664 41.6888 143.686C41.7048 143.708 41.7163 143.733 41.7226 143.759C41.7289 143.786 41.73 143.813 41.7258 143.84C41.7215 143.867 41.712 143.893 41.6978 143.916C41.6836 143.939 41.665 143.959 41.643 143.975C41.621 143.991 41.596 144.003 41.5696 144.009C40.4785 144.279 39.3029 144.5 38.4735 144.259C38.0686 144.566 37.5728 144.731 37.0643 144.726C36.8386 144.723 36.6152 144.68 36.404 144.601C36.3103 144.746 36.1847 144.867 36.0367 144.956C35.8887 145.044 35.7223 145.098 35.5504 145.112C35.2478 145.151 34.9403 145.125 34.6486 145.036C34.5546 145.194 34.414 145.319 34.2459 145.394C34.03 145.481 33.7983 145.522 33.5655 145.515ZM33.2193 142.181C33.1636 142.455 33.1746 142.738 33.2515 143.006C33.3083 143.328 33.4419 143.632 33.6409 143.891C33.84 144.151 34.0986 144.358 34.3949 144.496C34.3893 144.401 34.3731 144.306 34.3466 144.214C34.0326 143.063 33.4286 142.27 33.2193 142.181ZM35.4619 141.831C35.4645 142.109 35.4874 142.386 35.5303 142.66C35.5747 143.151 35.7915 143.61 36.1423 143.957C36.0432 143.213 35.8128 142.494 35.4619 141.831ZM37.9943 141.481C37.9943 141.481 37.8413 141.557 37.785 142.229C37.7286 142.902 37.8454 143.365 38.1594 143.635C38.2337 143.695 38.3148 143.746 38.401 143.788C38.5069 143.674 38.5817 143.536 38.6184 143.385C38.6901 142.751 38.5189 142.114 38.1393 141.601C38.0547 141.497 38.0064 141.481 37.9943 141.481Z" fill="#7395A7"/>
<path d="M92.4932 148.559L93.5843 146.666L92.4932 144.774H91.3256L91.9859 146.666L91.3256 148.559H92.4932Z" fill="#7395A7"/>
<path d="M91.4024 147.653C91.2678 147.661 91.1329 147.642 91.006 147.597C90.8791 147.551 90.7628 147.48 90.6645 147.388C90.5662 147.295 90.4878 147.184 90.4342 147.06C90.3806 146.937 90.353 146.803 90.353 146.668C90.353 146.533 90.3806 146.4 90.4342 146.276C90.4878 146.153 90.5662 146.041 90.6645 145.949C90.7628 145.857 90.8791 145.786 91.006 145.74C91.1329 145.694 91.2678 145.675 91.4024 145.684L89.5503 145.314L89.0551 146.811L89.8845 148.075L91.4024 147.653Z" fill="#7395A7"/>
<path d="M91.5634 144.774H89.3771L88.286 146.666L89.3771 148.559H91.5634L92.6545 146.666L91.5634 144.774ZM90.4723 147.653C90.277 147.654 90.0859 147.596 89.9232 147.488C89.7604 147.381 89.6333 147.227 89.5581 147.047C89.4828 146.866 89.4627 146.668 89.5003 146.476C89.5379 146.285 89.6315 146.109 89.7693 145.97C89.9071 145.832 90.0829 145.738 90.2743 145.699C90.4658 145.661 90.6643 145.68 90.8448 145.755C91.0253 145.829 91.1796 145.956 91.2881 146.118C91.3967 146.28 91.4547 146.471 91.4547 146.666C91.4547 146.927 91.3513 147.178 91.1672 147.362C90.9831 147.547 90.7332 147.652 90.4723 147.653Z" fill="#00425F" fill-opacity="0.6"/>
<path d="M168.596 144.645L167.787 143.24L168.596 141.835H169.462L168.974 143.24L169.462 144.645H168.596Z" fill="#00425F" fill-opacity="0.6"/>
<path d="M169.405 143.973C169.506 143.98 169.607 143.967 169.702 143.934C169.797 143.9 169.884 143.848 169.958 143.779C170.032 143.71 170.091 143.627 170.131 143.535C170.172 143.443 170.192 143.343 170.192 143.242C170.192 143.141 170.172 143.042 170.131 142.949C170.091 142.857 170.032 142.774 169.958 142.705C169.884 142.636 169.797 142.584 169.702 142.551C169.607 142.517 169.506 142.504 169.405 142.511L170.782 142.238L171.149 143.349L170.537 144.287L169.405 143.973Z" fill="#00425F" fill-opacity="0.6"/>
<path d="M169.289 141.835H170.899L171.704 143.24L170.899 144.645H169.289L168.483 143.24L169.289 141.835ZM170.094 143.973C170.239 143.974 170.381 143.931 170.502 143.851C170.623 143.771 170.718 143.657 170.774 143.523C170.83 143.389 170.845 143.242 170.817 143.1C170.789 142.957 170.72 142.826 170.618 142.723C170.515 142.62 170.385 142.55 170.242 142.522C170.1 142.493 169.953 142.507 169.819 142.563C169.684 142.618 169.57 142.712 169.489 142.832C169.408 142.953 169.365 143.095 169.365 143.24C169.365 143.336 169.383 143.432 169.42 143.521C169.457 143.61 169.511 143.691 169.579 143.759C169.647 143.828 169.728 143.881 169.817 143.918C169.906 143.955 170.002 143.973 170.098 143.973H170.094Z" fill="#7395A7"/>
<path d="M138.444 146.513H140.264C140.492 146.512 140.71 146.421 140.871 146.26C141.031 146.098 141.122 145.88 141.122 145.652C141.122 145.424 141.031 145.205 140.871 145.044C140.71 144.882 140.492 144.791 140.264 144.79H138.444C138.216 144.79 137.997 144.881 137.835 145.042C137.673 145.204 137.583 145.423 137.583 145.652C137.583 145.88 137.673 146.099 137.835 146.261C137.997 146.423 138.216 146.513 138.444 146.513Z" fill="#7395A7"/>
<path d="M135.517 144.887C135.686 144.58 135.941 144.329 136.251 144.165C136.561 144.001 136.912 143.931 137.26 143.964C137.609 143.997 137.941 144.132 138.214 144.351C138.488 144.571 138.691 144.866 138.799 145.199C138.907 145.532 138.915 145.89 138.822 146.228C138.729 146.566 138.539 146.87 138.276 147.101C138.012 147.332 137.687 147.481 137.34 147.53C136.993 147.579 136.639 147.525 136.322 147.375C135.887 147.15 135.558 146.763 135.407 146.297C135.256 145.831 135.296 145.324 135.517 144.887Z" fill="#00425F" fill-opacity="0.6"/>
<path d="M136.008 147.374L136.507 147.61L138.241 143.931L137.742 143.696L136.008 147.374Z" fill="#7395A7"/>
<path d="M90.5336 129.101H92.4434V127.802H93.507V126.163H92.4434V120.839H90.8979L87.2076 126.609V127.802H90.5336V129.101ZM89.2702 126.274L90.6922 123.912V126.274H89.2702Z" fill="white"/>
<path d="M97.4325 129.218C99.4598 129.218 100.723 127.544 100.723 124.964C100.723 122.314 99.4069 120.727 97.4325 120.727C95.4169 120.727 94.1534 122.402 94.1534 124.964C94.1534 127.632 95.4639 129.218 97.4325 129.218ZM97.4383 127.403C96.5921 127.403 96.1573 126.415 96.1573 124.964C96.1573 123.33 96.6744 122.537 97.4383 122.537C98.2963 122.537 98.7253 123.507 98.7253 124.964C98.7253 126.609 98.214 127.403 97.4383 127.403Z" fill="white"/>
<path d="M104.59 129.101H106.5V127.802H107.563V126.163H106.5V120.839H104.954L101.264 126.609V127.802H104.59V129.101ZM103.326 126.274L104.749 123.912V126.274H103.326Z" fill="white"/>
</svg>
